<svg width="635" height="318" viewBox="0 0 635 318" fill="none" xmlns="http://www.w3.org/2000/svg">
<g filter="url(#filter0_dd_722_79)">
<rect x="13.5" y="6" width="612" height="295" rx="23" stroke="white" stroke-width="2" shape-rendering="crispEdges"/>
<rect x="44.5" y="37" width="550" height="104" rx="16" fill="white" fill-opacity="0.9"/>
<g filter="url(#filter1_d_722_79)">
<path d="M75.5176 93.904C77.2096 93.904 78.3256 93.076 78.3256 91.96C78.3256 90.916 77.6416 89.116 74.3296 80.188L77.1016 78.928L81.3136 90.88C82.0696 93.04 82.8616 93.904 84.5896 93.904H85.3456C85.5256 93.904 85.7056 94.084 85.7056 95.488C85.7056 96.964 85.5256 97 85.3456 97H84.4816C82.3216 97 80.8816 96.316 80.0536 94.732C79.1536 96.316 77.7136 97 75.5176 97H67.0936L66.8056 93.904H75.5176ZM92.0194 85.408H95.0074V91.276C95.0074 94.876 92.6314 97 89.1034 97H85.3594C85.2154 97 84.9994 96.892 84.9994 95.488C84.9994 94.048 85.2154 93.904 85.3594 93.904H89.1034C90.7954 93.904 92.0194 92.968 92.0194 91.24V85.408ZM92.9914 101.536V104.416H83.4874V101.536H92.9914ZM105.399 80.98L107.523 78.856L114.435 86.812C116.055 88.648 116.595 90.16 116.595 91.672C116.595 94.768 114.399 97 110.295 97H100.035L99.747 93.904H110.295C112.419 93.904 113.607 93.004 113.607 91.636C113.607 90.772 113.175 89.944 112.131 88.72L105.399 80.98ZM127.509 91.132C127.509 92.896 128.553 93.904 130.533 93.904H131.001C131.145 93.904 131.361 94.084 131.361 95.488C131.361 96.892 131.145 97 131.001 97H130.533C129.237 97 128.013 96.496 127.509 95.776V96.208C127.401 102.04 123.657 105.784 118.077 105.784H115.557L115.269 102.688H118.005C122.073 102.688 124.521 100.204 124.521 95.956V85.408H127.509V91.132ZM134.376 72.772L146.076 67.876L146.688 69.82L134.376 74.932V72.772ZM140.964 93.904C143.052 93.904 144.276 93.004 144.276 91.636C144.276 90.664 143.844 89.8 142.8 88.72L134.34 80.332V77.74L147.48 72.52L148.38 75.4L137.868 79.54L145.068 86.776C146.652 88.36 147.264 90.052 147.264 91.672C147.264 94.768 145.068 97 140.964 97H130.992C130.848 97 130.632 96.892 130.632 95.488C130.632 94.048 130.848 93.904 130.992 93.904H140.964ZM169.949 82.384V79.54H179.453V82.384H169.949ZM191.189 93.904C191.333 93.904 191.549 94.048 191.549 95.488C191.549 96.892 191.333 97 191.189 97H190.109C187.985 97 186.473 96.316 185.789 94.876C184.925 96.316 183.341 97 181.253 97H168.545C164.225 97 162.173 94.516 162.173 90.772V85.408H165.161V90.376C165.161 92.536 166.205 93.904 168.725 93.904H181.253C183.125 93.904 184.313 92.896 184.313 91.276V85.408H187.301V91.168C187.301 92.968 188.309 93.904 190.217 93.904H191.189ZM195.5 93.904C197.336 93.904 198.56 92.896 198.56 91.24V85.408H201.548V91.168C201.548 92.968 202.556 93.904 204.428 93.904H205.436C205.58 93.904 205.796 94.048 205.796 95.452C205.796 96.892 205.58 97 205.436 97H204.32C202.196 97 200.684 96.316 200 94.876C199.136 96.316 197.552 97 195.5 97H191.18C191.036 97 190.82 96.892 190.82 95.488C190.82 94.048 191.036 93.904 191.18 93.904H195.5ZM196.832 104.56H193.016V101.536H196.832V104.56ZM213.121 73.312V76.156H209.845V73.312H213.121ZM216.217 78.244V81.088H206.713V78.244H216.217ZM212.113 91.24V85.408H215.101V91.276C215.101 94.876 212.725 97 209.197 97H205.453C205.309 97 205.093 96.892 205.093 95.488C205.093 94.048 205.309 93.904 205.453 93.904H209.197C210.889 93.904 212.113 92.968 212.113 91.24ZM368.561 93.904C368.741 93.904 368.921 94.048 368.921 95.488C368.921 96.892 368.741 97 368.561 97H367.625C363.917 97 362.045 94.66 362.045 90.7V73.708H365.033V90.556C365.033 92.788 365.933 93.904 367.769 93.904H368.561ZM378.226 91.276C378.226 94.876 375.85 97 372.322 97H368.578C368.434 97 368.218 96.892 368.218 95.488C368.218 94.048 368.434 93.904 368.578 93.904H372.322C374.014 93.904 375.238 92.968 375.238 91.24V85.408H378.226V91.276ZM373.366 104.56H369.55V101.536H373.366V104.56ZM399.428 93.904C399.608 93.904 399.788 94.048 399.788 95.488C399.788 96.892 399.608 97 399.428 97H398.492C394.784 97 392.912 94.66 392.912 90.7V73.708H395.9V90.556C395.9 92.788 396.8 93.904 398.636 93.904H399.428ZM400.273 93.904C402.001 93.904 402.829 93.148 402.829 91.6V90.124C402.829 85.516 405.421 82.708 409.705 82.708C413.989 82.708 416.365 85.264 416.365 89.98V90.988C416.365 93.076 417.229 93.904 418.849 93.904H419.749C419.893 93.904 420.109 94.048 420.109 95.488C420.109 96.892 419.893 97 419.749 97H418.849C416.797 97 415.429 96.316 414.781 94.696C413.773 96.244 411.793 97 409.597 97C407.077 97 405.385 96.208 404.557 94.768C403.765 96.316 402.505 97 400.273 97H399.445C399.301 97 399.085 96.892 399.085 95.488C399.085 94.048 399.301 93.904 399.445 93.904H400.273ZM413.377 89.98C413.377 87.172 412.153 85.732 409.597 85.732C407.041 85.732 405.817 87.172 405.817 90.124C405.817 92.464 407.185 93.904 409.597 93.904C412.081 93.904 413.377 92.644 413.377 89.98ZM438.558 73.312V76.156H435.282V73.312H438.558ZM432.15 81.088V78.244H441.654V81.088H432.15ZM444.642 85.408H447.63V90.988C447.63 94.768 445.254 97 441.546 97C439.062 97 437.55 96.208 436.866 94.768C436.002 96.208 434.418 97 432.15 97C429.486 97 427.974 96.208 427.29 94.768C426.426 96.208 424.842 97 422.574 97H419.766C419.622 97 419.406 96.892 419.406 95.488C419.406 94.048 419.622 93.904 419.766 93.904H422.574C424.734 93.904 425.922 92.788 425.922 91.06V85.408H428.946V91.06C428.946 92.86 429.954 93.904 432.15 93.904C434.31 93.904 435.498 92.788 435.498 91.06V85.408H438.486V91.06C438.486 92.86 439.53 93.904 441.546 93.904C443.562 93.904 444.642 92.86 444.642 91.06V85.408ZM469.797 82.384V79.54H479.301V82.384H469.797ZM484.161 85.408H487.149V91.348C487.149 94.876 484.773 97 481.281 97H468.393C464.073 97 462.021 94.516 462.021 90.772V85.408H465.009V90.376C465.009 92.536 466.053 93.904 468.573 93.904H481.281C482.973 93.904 484.161 92.896 484.161 91.276V85.408ZM499.799 93.904C499.979 93.904 500.159 94.048 500.159 95.488C500.159 96.892 499.979 97 499.799 97H498.863C495.155 97 493.283 94.66 493.283 90.7V73.708H496.271V90.556C496.271 92.788 497.171 93.904 499.007 93.904H499.799ZM504.316 93.904C503.236 92.86 502.84 91.492 502.84 90.052C502.84 85.984 505.648 82.96 509.86 82.96C511.588 82.96 513.208 83.356 515.116 84.544L514.072 86.992C512.416 86.236 511.084 85.984 509.86 85.984C507.556 85.984 505.828 87.676 505.828 89.872C505.828 92.212 507.304 93.904 509.644 93.904H516.088L515.8 97H499.816C499.672 97 499.456 96.892 499.456 95.488C499.456 94.048 499.672 93.904 499.816 93.904H504.316ZM522.217 97V73.708H525.205V93.904H529.993C531.685 93.904 532.909 92.896 532.909 91.24V73.708H535.897V91.06C535.897 93.112 537.121 93.904 538.669 93.904H539.569C539.713 93.904 539.929 94.048 539.929 95.488C539.929 96.892 539.713 97 539.569 97H538.561C536.473 97 534.961 96.244 534.385 94.84C533.557 96.244 532.045 97 529.993 97H522.217ZM542.962 93.904V73.708H545.95V89.008C549.118 84.112 551.998 82.204 554.878 82.204C558.766 82.204 561.646 85.264 561.646 89.62C561.646 94.012 558.766 97 554.122 97H539.578C539.434 97 539.218 96.892 539.218 95.488C539.218 94.048 539.434 93.904 539.578 93.904H542.962ZM554.122 93.904C557.002 93.904 558.658 92.248 558.658 89.62C558.658 86.992 556.93 85.192 554.662 85.192C551.89 85.192 549.226 87.964 545.734 93.904H554.122ZM567.814 97V73.708H570.802V97H567.814Z" fill="#6950A1"/>
<path d="M236.411 82.132V78.028H246.599V82.132H236.411ZM257.435 92.212C257.579 92.212 257.795 92.392 257.795 94.696C257.795 96.856 257.579 97 257.435 97H255.851C253.943 97 252.503 96.496 251.747 95.272C250.847 96.496 249.443 97 247.463 97H235.655C231.299 97 228.959 94.624 228.959 90.376V84.616H233.531V89.764C233.531 91.348 234.215 92.212 235.871 92.212H247.463C248.651 92.212 249.479 91.528 249.479 90.412V84.616H254.051V90.232C254.051 91.528 254.735 92.212 256.067 92.212H257.435ZM271.597 92.212C271.741 92.212 271.957 92.392 271.957 94.624C271.957 96.856 271.741 97 271.597 97H270.013C268.105 97 266.665 96.496 265.909 95.272C265.009 96.496 263.605 97 261.625 97H257.449C257.305 97 257.089 96.892 257.089 94.696C257.089 92.392 257.305 92.212 257.449 92.212H261.625C262.813 92.212 263.641 91.528 263.641 90.376V84.616H268.213V90.232C268.213 91.528 268.897 92.212 270.229 92.212H271.597ZM265.009 100.744V104.848H254.857V100.744H265.009ZM276.37 77.596V73.492H286.558V77.596H276.37ZM291.346 92.212C291.49 92.212 291.706 92.392 291.706 94.696C291.706 96.856 291.49 97 291.346 97H286.45C283.786 97 282.346 96.82 281.446 96.28C280.546 96.82 278.926 97 276.478 97H271.582C271.438 97 271.222 96.892 271.222 94.696C271.222 92.392 271.438 92.212 271.582 92.212H275.506C274.678 91.348 274.21 89.8 274.21 88.432C274.21 84.436 277.306 81.196 281.446 81.196C285.802 81.196 288.718 84.076 288.718 88.252C288.718 89.8 288.214 91.168 287.206 92.212H291.346ZM281.446 92.212C283.318 91.348 284.146 89.836 284.146 88.468C284.146 86.776 283.138 85.768 281.446 85.768C279.754 85.768 278.746 86.956 278.746 88.468C278.746 89.98 279.79 91.348 281.446 92.212ZM303.544 77.272H298.612V73.168H303.544V77.272ZM295.444 92.212H296.524C294.796 91.168 293.968 89.8 293.968 87.784C293.968 83.716 296.992 80.548 301.24 80.548C305.956 80.548 308.62 83.572 308.62 88.54V89.764C308.62 94.624 305.236 97 298.864 97H291.34C291.196 97 290.98 96.892 290.98 94.696C290.98 92.392 291.196 92.212 291.34 92.212H295.444ZM303.256 91.852C303.868 91.204 304.084 90.376 304.084 89.26V88.72C304.084 86.308 303.076 85.12 301.204 85.12C299.692 85.12 298.54 86.308 298.54 87.784C298.54 89.512 299.728 90.592 303.256 91.852ZM330.575 92.212C330.719 92.212 330.935 92.392 330.935 94.696C330.935 96.856 330.719 97 330.575 97H327.731C327.227 102.4 323.735 105.604 318.443 105.604H313.511L313.115 100.816H318.731C321.575 100.816 323.231 99.304 323.231 97H320.711C315.455 97 313.475 94.84 313.475 90.232C313.475 85.552 316.355 82.312 320.711 82.312C325.103 82.312 327.803 85.372 327.803 90.448V92.212H330.575ZM318.011 90.052C318.011 91.564 318.695 92.248 320.891 92.248H323.231V90.376C323.231 88.036 322.259 86.848 320.567 86.848C318.875 86.848 318.011 88.216 318.011 90.052ZM331.51 92.212C332.842 92.212 333.346 91.708 333.346 90.52V89.512C333.346 84.832 336.226 81.952 340.762 81.952C345.298 81.952 347.818 84.652 347.818 89.548C347.818 94.264 345.118 97 340.582 97C338.134 97 336.55 96.316 335.83 95.272C334.93 96.496 333.634 97 331.51 97H330.574C330.43 97 330.214 96.892 330.214 94.696C330.214 92.392 330.43 92.212 330.574 92.212H331.51ZM343.282 89.548C343.282 87.532 342.418 86.524 340.582 86.524C338.746 86.524 337.882 87.532 337.882 89.548C337.882 91.24 338.746 92.248 340.582 92.248C342.418 92.248 343.282 91.384 343.282 89.548Z" fill="#559F82"/>
</g>
<g filter="url(#filter2_d_722_79)">
<rect x="91.5" y="173" width="456" height="97" rx="16" fill="#559F82" shape-rendering="crispEdges"/>
<path d="M117.769 226.212C118.921 226.212 119.749 225.708 119.749 224.844C119.749 224.088 119.245 222.864 116.005 214.224L120.253 212.208L124.429 223.872C125.005 225.528 125.617 226.212 126.913 226.212H127.849C127.993 226.212 128.209 226.464 128.209 228.696C128.209 230.964 127.993 231 127.849 231H126.697C124.645 231 123.205 230.496 122.269 229.092C121.333 230.496 119.929 231 117.913 231H109.705L109.345 226.212H117.769ZM133.384 218.616H137.956V224.592C137.956 228.588 135.4 231 131.368 231H127.84C127.696 231 127.48 230.892 127.48 228.696C127.48 226.392 127.696 226.212 127.84 226.212H131.368C132.556 226.212 133.384 225.528 133.384 224.376V218.616ZM135.796 234.744V238.848H125.644V234.744H135.796ZM150.183 226.212C151.335 226.212 152.163 225.708 152.163 224.844C152.163 224.088 151.659 222.864 148.419 214.224L152.667 212.208L156.843 223.872C157.419 225.528 158.031 226.212 159.327 226.212H160.263C160.407 226.212 160.623 226.464 160.623 228.696C160.623 230.964 160.407 231 160.263 231H159.111C157.059 231 155.619 230.496 154.683 229.092C153.747 230.496 152.343 231 150.327 231H142.119L141.759 226.212H150.183ZM161.19 226.212C162.522 226.212 163.026 225.708 163.026 224.52V223.512C163.026 218.832 165.906 215.952 170.442 215.952C174.978 215.952 177.498 218.652 177.498 223.548C177.498 228.264 174.798 231 170.262 231C167.814 231 166.23 230.316 165.51 229.272C164.61 230.496 163.314 231 161.19 231H160.254C160.11 231 159.894 230.892 159.894 228.696C159.894 226.392 160.11 226.212 160.254 226.212H161.19ZM172.962 223.548C172.962 221.532 172.098 220.524 170.262 220.524C168.426 220.524 167.562 221.532 167.562 223.548C167.562 225.24 168.426 226.248 170.262 226.248C172.098 226.248 172.962 225.384 172.962 223.548ZM183.363 206.412C182.427 206.412 181.887 206.808 181.599 207.528L180.699 209.796L177.675 208.464L178.863 205.296C179.691 203.064 180.951 202.416 183.435 202.416H192.471V206.412H183.363ZM184.119 210.804H188.727V231H184.119V210.804ZM232.502 205.116V209.04H228.218V205.116H232.502ZM225.266 214.872V210.768H235.454V214.872H225.266ZM237.29 218.616H241.862V224.088C241.862 228.444 239.306 231 234.95 231C232.394 231 230.954 230.316 230.198 229.092C229.334 230.316 227.93 231 225.662 231C224.33 231 223.574 230.784 223.106 230.496C222.89 235.896 218.93 239.604 213.026 239.604H211.586C205.286 239.604 201.83 235.788 201.83 229.416V222.216H206.402V229.308C206.402 232.908 207.986 234.816 211.586 234.816H213.026C216.482 234.816 218.57 232.908 218.57 229.668V218.616H223.142V224.052C223.142 225.384 223.79 226.212 225.59 226.212C227.246 226.212 228.074 225.384 228.074 224.052V218.616H232.646V224.052C232.646 225.384 233.33 226.212 234.95 226.212C236.606 226.212 237.29 225.384 237.29 224.052V218.616ZM263.825 226.212C263.969 226.212 264.185 226.392 264.185 228.696C264.185 230.856 263.969 231 263.825 231H260.981C260.477 236.4 256.985 239.604 251.693 239.604H246.761L246.365 234.816H251.981C254.825 234.816 256.481 233.304 256.481 231H253.961C248.705 231 246.725 228.84 246.725 224.232C246.725 219.552 249.605 216.312 253.961 216.312C258.353 216.312 261.053 219.372 261.053 224.448V226.212H263.825ZM251.261 224.052C251.261 225.564 251.945 226.248 254.141 226.248H256.481V224.376C256.481 222.036 255.509 220.848 253.817 220.848C252.125 220.848 251.261 222.216 251.261 224.052ZM275.776 211.776H270.88V207.672H275.776V211.776ZM266.488 226.212C269.98 226.212 272.068 225.888 274.696 224.412L278.044 222.504C277.54 220.668 276.712 220.164 274.876 220.164H266.632L267.172 215.412H275.74C280.168 215.412 281.968 217.428 283.48 224.016L276.46 228.372C273.112 230.46 270.484 231 266.272 231H263.824C263.68 231 263.464 230.892 263.464 228.696C263.464 226.392 263.68 226.212 263.824 226.212H266.488ZM304.679 225.414C304.889 225.414 305.099 225.624 305.099 228.312C305.099 230.832 304.889 231 304.679 231H303.167C298.379 231 295.985 228.102 295.985 223.146V203.952H301.361V222.768C301.361 224.574 302.033 225.414 303.545 225.414H304.679ZM310.988 225.414C311.156 225.414 311.408 225.708 311.408 228.312C311.408 230.958 311.156 231 310.988 231H304.688C304.519 231 304.267 230.832 304.267 228.312C304.267 225.582 304.519 225.414 304.688 225.414H310.988ZM314.364 201.852L328.56 196.056L329.484 199.332L314.364 205.422V201.852ZM322.134 225.414C323.856 225.414 324.822 224.826 324.822 223.818C324.822 222.852 324.402 222.222 323.478 221.298L314.364 212.394V208.026L330.282 201.894L331.794 207.102L320.958 211.176L327.51 217.686C329.526 219.744 330.366 221.802 330.366 224.154C330.366 228.144 327.51 231 322.302 231H311.004C310.836 231 310.584 230.874 310.584 228.312C310.584 225.624 310.836 225.414 311.004 225.414H322.134ZM356.779 225.414C356.947 225.414 357.199 225.624 357.199 228.312C357.199 230.832 356.947 231 356.779 231H353.461C352.873 237.3 348.799 241.038 342.625 241.038H336.871L336.409 235.452H342.961C346.279 235.452 348.211 233.688 348.211 231H345.271C339.139 231 336.829 228.48 336.829 223.104C336.829 217.644 340.189 213.864 345.271 213.864C350.395 213.864 353.545 217.434 353.545 223.356V225.414H356.779ZM342.121 222.894C342.121 224.658 342.919 225.456 345.481 225.456H348.211V223.272C348.211 220.542 347.077 219.156 345.103 219.156C343.129 219.156 342.121 220.752 342.121 222.894ZM358.289 225.414C359.633 225.414 360.599 224.616 360.599 223.272V203.952H365.975V223.524C365.975 228.228 362.993 231 358.331 231H356.777C356.609 231 356.357 230.874 356.357 228.312C356.357 225.624 356.609 225.414 356.777 225.414H358.289ZM379.521 224.628C379.521 222.144 380.745 219.66 383.805 216.6L382.257 215.052L385.497 211.632C392.769 218.004 394.353 220.848 394.353 224.268C394.353 228.444 391.257 231.36 386.577 231.36C382.221 231.36 379.521 228.624 379.521 224.628ZM389.781 224.232C389.781 222.72 389.097 221.388 386.937 219.552C384.921 221.388 384.057 222.864 384.057 224.412C384.057 225.6 385.029 226.608 386.757 226.608C388.593 226.608 389.781 225.6 389.781 224.232ZM403.026 215.412L406.338 212.136L412.746 219.696C414.582 221.82 415.158 223.368 415.158 225.168C415.158 228.48 412.746 231 408.282 231H398.526L398.166 226.212H408.066C409.578 226.212 410.406 225.708 410.406 224.844C410.406 224.196 410.082 223.692 409.218 222.684L403.026 215.412ZM420.275 231V207.816H424.883V231H420.275ZM447.177 226.212C447.321 226.212 447.537 226.392 447.537 228.696C447.537 230.856 447.321 231 447.177 231H444.333C443.829 236.4 440.337 239.604 435.045 239.604H430.113L429.717 234.816H435.333C438.177 234.816 439.833 233.304 439.833 231H437.313C432.057 231 430.077 228.84 430.077 224.232C430.077 219.552 432.957 216.312 437.313 216.312C441.705 216.312 444.405 219.372 444.405 224.448V226.212H447.177ZM434.613 224.052C434.613 225.564 435.297 226.248 437.493 226.248H439.833V224.376C439.833 222.036 438.861 220.848 437.169 220.848C435.477 220.848 434.613 222.216 434.613 224.052ZM455.888 214.872H450.992V210.768H455.888V214.872ZM457.292 224.592C457.292 228.588 454.736 231 450.704 231H447.176C447.032 231 446.816 230.892 446.816 228.696C446.816 226.392 447.032 226.212 447.176 226.212H450.704C451.892 226.212 452.72 225.528 452.72 224.376V218.616H457.292V224.592ZM469.879 226.212C470.059 226.212 470.239 226.392 470.239 228.696C470.239 230.856 470.059 231 469.879 231H468.583C464.479 231 462.427 228.516 462.427 224.268V207.816H467.035V223.944C467.035 225.492 467.611 226.212 468.907 226.212H469.879ZM481.839 211.776H476.943V207.672H481.839V211.776ZM472.551 226.212C476.043 226.212 478.131 225.888 480.759 224.412L484.107 222.504C483.603 220.668 482.775 220.164 480.939 220.164H472.695L473.235 215.412H481.803C486.231 215.412 488.031 217.428 489.543 224.016L482.523 228.372C479.175 230.46 476.547 231 472.335 231H469.887C469.743 231 469.527 230.892 469.527 228.696C469.527 226.392 469.743 226.212 469.887 226.212H472.551ZM515.559 223.728C515.559 225.528 516.243 226.212 517.431 226.212H518.547C518.727 226.212 518.907 226.392 518.907 228.696C518.907 230.856 518.727 231 518.547 231H517.395C514.911 231 513.111 230.244 512.391 228.156C511.311 229.056 509.547 229.416 507.927 229.416C503.643 229.416 501.267 227.076 501.267 222.324C501.267 218.364 504.111 214.692 508.611 214.692H510.987V212.352H515.559V223.728ZM505.803 222.288C505.803 223.836 506.487 224.664 508.179 224.664C510.015 224.664 511.023 223.98 511.023 222.792V219.264H508.683C506.811 219.264 505.803 220.272 505.803 222.288ZM528.659 224.592C528.659 228.588 526.103 231 522.071 231H518.543C518.399 231 518.183 230.892 518.183 228.696C518.183 226.392 518.399 226.212 518.543 226.212H522.071C523.259 226.212 524.087 225.528 524.087 224.376V218.616H528.659V224.592ZM523.871 238.848H518.975V234.744H523.871V238.848Z" fill="white"/>
</g>
</g>
<defs>
<filter id="filter0_dd_722_79" x="0.5" y="0" width="634" height="318" filterUnits="userSpaceOnUse" color-interpolation-filters="sRGB">
<feFlood flood-opacity="0" result="BackgroundImageFix"/>
<feColorMatrix in="SourceAlpha" type="matrix" values="0 0 0 0 0 0 0 0 0 0 0 0 0 0 0 0 0 0 127 0" result="hardAlpha"/>
<feOffset dx="-4" dy="8"/>
<feGaussianBlur stdDeviation="4"/>
<feComposite in2="hardAlpha" operator="out"/>
<feColorMatrix type="matrix" values="0 0 0 0 0 0 0 0 0 0 0 0 0 0 0 0 0 0 0.1 0"/>
<feBlend mode="normal" in2="BackgroundImageFix" result="effect1_dropShadow_722_79"/>
<feColorMatrix in="SourceAlpha" type="matrix" values="0 0 0 0 0 0 0 0 0 0 0 0 0 0 0 0 0 0 127 0" result="hardAlpha"/>
<feOffset dx="2" dy="1"/>
<feGaussianBlur stdDeviation="3"/>
<feComposite in2="hardAlpha" operator="out"/>
<feColorMatrix type="matrix" values="0 0 0 0 0 0 0 0 0 0 0 0 0 0 0 0 0 0 0.15 0"/>
<feBlend mode="normal" in2="effect1_dropShadow_722_79" result="effect2_dropShadow_722_79"/>
<feBlend mode="normal" in="SourceGraphic" in2="effect2_dropShadow_722_79" result="shape"/>
</filter>
<filter id="filter1_d_722_79" x="66.8047" y="67.876" width="529.998" height="63.9081" filterUnits="userSpaceOnUse" color-interpolation-filters="sRGB">
<feFlood flood-opacity="0" result="BackgroundImageFix"/>
<feColorMatrix in="SourceAlpha" type="matrix" values="0 0 0 0 0 0 0 0 0 0 0 0 0 0 0 0 0 0 127 0" result="hardAlpha"/>
<feOffset dx="16" dy="16"/>
<feGaussianBlur stdDeviation="5"/>
<feComposite in2="hardAlpha" operator="out"/>
<feColorMatrix type="matrix" values="0 0 0 0 0 0 0 0 0 0 0 0 0 0 0 0 0 0 0.25 0"/>
<feBlend mode="normal" in2="BackgroundImageFix" result="effect1_dropShadow_722_79"/>
<feBlend mode="normal" in="SourceGraphic" in2="effect1_dropShadow_722_79" result="shape"/>
</filter>
<filter id="filter2_d_722_79" x="67.5" y="163" width="496" height="137" filterUnits="userSpaceOnUse" color-interpolation-filters="sRGB">
<feFlood flood-opacity="0" result="BackgroundImageFix"/>
<feColorMatrix in="SourceAlpha" type="matrix" values="0 0 0 0 0 0 0 0 0 0 0 0 0 0 0 0 0 0 127 0" result="hardAlpha"/>
<feOffset dx="-4" dy="10"/>
<feGaussianBlur stdDeviation="10"/>
<feComposite in2="hardAlpha" operator="out"/>
<feColorMatrix type="matrix" values="0 0 0 0 0 0 0 0 0 0 0 0 0 0 0 0 0 0 0.15 0"/>
<feBlend mode="normal" in2="BackgroundImageFix" result="effect1_dropShadow_722_79"/>
<feBlend mode="normal" in="SourceGraphic" in2="effect1_dropShadow_722_79" result="shape"/>
</filter>
</defs>
</svg>
