<svg width="735" height="199" viewBox="0 0 735 199" fill="none" xmlns="http://www.w3.org/2000/svg">
<g filter="url(#filter0_dd_732_181)">
<rect x="12.5" y="5" width="714" height="178" rx="16" fill="white" fill-opacity="0.9" shape-rendering="crispEdges"/>
<g filter="url(#filter1_d_732_181)">
<path d="M199.34 49.28C201.02 49.28 202.29 49.87 203.15 51.05C204.03 52.21 204.47 53.85 204.47 55.97C204.47 58.09 204.06 59.75 203.24 60.95C202.42 62.13 201.12 62.72 199.34 62.72C197.68 62.72 196.42 62.13 195.56 60.95C194.72 59.75 194.3 58.09 194.3 55.97C194.3 53.85 194.7 52.21 195.5 51.05C196.3 49.87 197.58 49.28 199.34 49.28ZM214.55 49.58L202.67 71H199.16L211.04 49.58H214.55ZM199.37 52.34C198.45 52.34 197.99 53.56 197.99 56C197.99 58.46 198.45 59.69 199.37 59.69C200.31 59.69 200.78 58.46 200.78 56C200.78 53.56 200.31 52.34 199.37 52.34ZM214.34 57.83C216.02 57.83 217.29 58.42 218.15 59.6C219.03 60.76 219.47 62.4 219.47 64.52C219.47 66.64 219.06 68.3 218.24 69.5C217.42 70.68 216.12 71.27 214.34 71.27C212.68 71.27 211.42 70.68 210.56 69.5C209.72 68.3 209.3 66.64 209.3 64.52C209.3 62.4 209.7 60.76 210.5 59.6C211.3 58.42 212.58 57.83 214.34 57.83ZM214.37 60.89C213.45 60.89 212.99 62.11 212.99 64.55C212.99 67.01 213.45 68.24 214.37 68.24C215.31 68.24 215.78 67.01 215.78 64.55C215.78 62.11 215.31 60.89 214.37 60.89ZM244.673 69.0364C244.702 71.0145 243.917 72.6291 242.317 73.88C240.717 75.1309 238.898 75.7564 236.862 75.7564C235.378 75.7564 234.026 75.3782 232.804 74.6218C231.902 75.0873 231.16 75.3636 230.578 75.4509C230.055 75.6545 229.371 75.7564 228.527 75.7564C226.637 75.7564 225.022 75.0727 223.684 73.7055C222.375 72.3673 221.72 70.5927 221.72 68.3818C221.72 66.1709 222.36 64.0036 223.64 61.88C224.047 61.2109 224.586 60.4545 225.255 59.6109L228.309 55.7709L227.087 54.7236L230.491 50.7527C235.378 54.3309 239 57.7345 241.357 60.9636C243.538 63.9891 244.644 66.68 244.673 69.0364ZM239.567 68.6436C239.567 67.6545 239 66.3164 237.866 64.6291C237.022 63.3491 235.786 61.9818 234.157 60.5273C233.778 60.1782 233.138 59.6545 232.237 58.9564C232.004 59.2182 231.669 59.5964 231.233 60.0909C231.233 60.0909 230.709 60.7309 229.662 62.0109C228.993 62.8255 228.397 63.7418 227.873 64.76C227 66.4473 226.564 67.7709 226.564 68.7309C226.564 69.3127 226.695 69.7636 226.957 70.0836C227.044 70.2 227.218 70.3309 227.48 70.4764C227.597 70.4764 227.829 70.5055 228.178 70.5636C228.789 70.5636 229.357 70.3018 229.88 69.7782C230.404 69.2255 230.651 68.5564 230.622 67.7709L230.578 67.0291C230.578 66.7673 230.477 66.4764 230.273 66.1564H235.553C235.669 66.3891 235.8 66.7673 235.946 67.2909L236.077 68.6873V69.5164L235.989 70.2145C236.513 70.5055 237.022 70.6509 237.517 70.6509C238.069 70.6509 238.549 70.4764 238.957 70.1273C239.364 69.7782 239.567 69.2836 239.567 68.6436Z" fill="#F37032"/>
<path d="M280.249 51.596H275.317V47.492H280.249V51.596ZM271.825 66.212C271.033 65.348 270.529 63.8 270.529 62.432C270.529 58.436 273.625 55.196 277.801 55.196C282.121 55.196 285.037 58.076 285.037 62.252C285.037 63.8 284.533 65.168 283.525 66.212H287.665C287.809 66.212 288.025 66.392 288.025 68.696C288.025 70.856 287.809 71 287.665 71H282.769C280.141 71 278.701 70.82 277.765 70.28C276.865 70.82 275.245 71 272.797 71H263.293C258.937 71 256.597 68.624 256.597 64.376V58.616H261.169V63.764C261.169 65.348 261.853 66.212 263.509 66.212H271.825ZM277.801 66.212C279.637 65.348 280.501 63.836 280.501 62.468C280.501 60.776 279.493 59.768 277.801 59.768C276.109 59.768 275.101 60.956 275.101 62.468C275.101 63.98 276.109 65.348 277.801 66.212ZM301.801 66.212C301.945 66.212 302.161 66.392 302.161 68.624C302.161 70.856 301.945 71 301.801 71H300.217C298.309 71 296.869 70.496 296.113 69.272C295.213 70.496 293.809 71 291.829 71H287.653C287.509 71 287.293 70.892 287.293 68.696C287.293 66.392 287.509 66.212 287.653 66.212H291.829C293.017 66.212 293.845 65.528 293.845 64.376V58.616H298.417V64.232C298.417 65.528 299.101 66.212 300.433 66.212H301.801ZM295.213 74.744V78.848H285.061V74.744H295.213ZM314.134 51.596H309.202V47.492H314.134V51.596ZM305.71 66.212C304.882 65.348 304.414 63.8 304.414 62.432C304.414 58.436 307.51 55.196 311.65 55.196C316.006 55.196 318.922 58.076 318.922 62.252C318.922 63.8 318.418 65.168 317.41 66.212H321.55C321.694 66.212 321.91 66.392 321.91 68.696C321.91 70.856 321.694 71 321.55 71H316.654C313.99 71 312.55 70.82 311.65 70.28C310.75 70.82 309.13 71 306.682 71H301.786C301.642 71 301.426 70.892 301.426 68.696C301.426 66.392 301.642 66.212 301.786 66.212H305.71ZM311.65 59.768C309.958 59.768 308.95 60.956 308.95 62.468C308.95 63.98 309.994 65.348 311.65 66.212C313.522 65.348 314.35 63.836 314.35 62.468C314.35 60.776 313.342 59.768 311.65 59.768ZM333.496 51.776H328.6V47.672H333.496V51.776ZM324.352 60.164L324.892 55.412H333.46C337.78 55.412 339.652 57.284 341.128 63.8L338.86 65.24C339.292 65.888 340.336 66.212 341.596 66.212H343.756C343.9 66.212 344.116 66.464 344.116 68.696C344.116 70.964 343.9 71 343.756 71H341.344C338.68 71 337.024 70.1 335.548 67.508L334.18 68.372C330.832 70.46 328.204 71 323.992 71H321.544C321.4 71 321.184 70.892 321.184 68.696C321.184 66.392 321.4 66.212 321.544 66.212H324.208C327.7 66.212 329.788 65.888 332.416 64.412L335.764 62.504C335.26 60.668 334.432 60.164 332.596 60.164H324.352ZM354.779 50.768V54.872H344.591V50.768H354.779ZM349.307 64.376V58.616H353.879V64.592C353.879 68.588 351.323 71 347.291 71H343.763C343.619 71 343.403 70.892 343.403 68.696C343.403 66.392 343.619 66.212 343.763 66.212H347.291C348.479 66.212 349.307 65.528 349.307 64.376ZM374.88 56.384V53.54H384.384V56.384H374.88ZM396.12 67.904C396.264 67.904 396.48 68.048 396.48 69.488C396.48 70.892 396.264 71 396.12 71H395.04C392.916 71 391.404 70.316 390.72 68.876C389.856 70.316 388.272 71 386.184 71H373.476C369.156 71 367.104 68.516 367.104 64.772V59.408H370.092V64.376C370.092 66.536 371.136 67.904 373.656 67.904H386.184C388.056 67.904 389.244 66.896 389.244 65.276V59.408H392.232V65.168C392.232 66.968 393.24 67.904 395.148 67.904H396.12ZM407.81 51.488H403.994V48.5H407.81V51.488ZM402.482 67.904C403.094 67.904 403.85 67.868 404.318 67.76C400.43 66.32 399.17 64.88 399.17 62.108C399.17 58.256 402.086 55.268 406.082 55.268C410.474 55.268 413.03 58.112 413.03 63.008V64.232C413.03 68.732 409.97 71 404.21 71H396.11C395.966 71 395.75 70.892 395.75 69.488C395.75 68.048 395.966 67.904 396.11 67.904H402.482ZM408.746 67.22C409.574 66.536 410.042 65.492 410.042 64.052V63.188C410.042 59.912 408.638 58.292 406.01 58.292C403.886 58.292 402.158 59.984 402.158 62.036C402.158 64.34 403.562 65.528 408.746 67.22ZM425.659 67.904C425.839 67.904 426.019 68.048 426.019 69.488C426.019 70.892 425.839 71 425.659 71H424.723C421.015 71 419.143 68.66 419.143 64.7V47.708H422.131V64.556C422.131 66.788 423.031 67.904 424.867 67.904H425.659ZM437.233 59.408H440.257V65.276C440.257 68.876 437.881 71 434.353 71H425.677C425.533 71 425.317 70.892 425.317 69.488C425.317 68.048 425.533 67.904 425.677 67.904H434.353C436.045 67.904 437.233 66.968 437.233 65.24V59.408ZM435.541 75.536V78.416H426.037V75.536H435.541ZM451.197 69.956C451.197 76.04 447.345 79.784 441.765 79.784H440.757L440.469 76.688H441.693C445.761 76.688 448.209 74.204 448.209 69.956V59.408H451.197V69.956ZM461.607 54.98L463.731 52.856L470.643 60.812C472.263 62.648 472.803 64.16 472.803 65.672C472.803 68.768 470.607 71 466.503 71H456.243L455.955 67.904H466.503C468.627 67.904 469.815 67.004 469.815 65.636C469.815 64.772 469.383 63.944 468.339 62.72L461.607 54.98ZM506.207 71.54C506.207 70.028 505.343 69.272 503.543 69.272H496.703V62.72C496.703 58.76 499.259 56.024 503.363 56.024H507.935L508.187 59.012H503.291C501.167 59.012 499.727 60.56 499.727 62.612V66.176H504.047C507.575 66.176 509.195 68.12 509.195 71.36C509.195 75.968 504.875 79.784 499.331 79.784H496.559C490.475 79.784 487.127 76.076 487.127 69.812V63.008H490.115V69.74C490.115 74.276 492.347 76.688 496.631 76.688H499.331C503.471 76.688 506.207 74.492 506.207 71.54ZM515.331 71V47.708H518.319V71H515.331ZM529.631 65.132C529.631 66.896 530.675 67.904 532.655 67.904H533.123C533.267 67.904 533.483 68.084 533.483 69.488C533.483 70.892 533.267 71 533.123 71H532.655C531.359 71 530.135 70.496 529.631 69.776V70.208C529.523 76.04 525.779 79.784 520.199 79.784H517.679L517.391 76.688H520.127C524.195 76.688 526.643 74.204 526.643 69.956V59.408H529.631V65.132ZM542.762 65.276C542.762 68.876 540.386 71 536.858 71H533.114C532.97 71 532.754 70.892 532.754 69.488C532.754 68.048 532.97 67.904 533.114 67.904H536.858C538.55 67.904 539.774 66.968 539.774 65.24V59.408H542.762V65.276ZM537.902 78.56H534.086V75.536H537.902V78.56ZM41.8162 135C40.5202 135 39.8722 134.424 39.8722 132.84C39.8722 131.328 40.5202 130.788 41.8162 130.788C43.1482 130.788 43.7962 131.328 43.7962 132.84C43.7962 134.424 43.1482 135 41.8162 135ZM57.2442 131.904C58.9362 131.904 60.0522 131.076 60.0522 129.96C60.0522 128.916 59.3682 127.116 56.0562 118.188L58.8282 116.928L63.0402 128.88C63.7962 131.04 64.5882 131.904 66.3162 131.904H67.0722C67.2522 131.904 67.4322 132.084 67.4322 133.488C67.4322 134.964 67.2522 135 67.0722 135H66.2082C64.0482 135 62.6082 134.316 61.7802 132.732C60.8802 134.316 59.4402 135 57.2442 135H48.8202L48.5322 131.904H57.2442ZM83.8259 131.904C83.9699 131.904 84.1859 132.048 84.1859 133.452C84.1859 134.892 83.9699 135 83.8259 135H82.7099C80.5859 135 79.0739 134.316 78.3899 132.876C77.5259 134.316 75.9419 135 73.8899 135H67.0859C66.9419 135 66.7259 134.892 66.7259 133.488C66.7259 132.048 66.9419 131.904 67.0859 131.904H73.8899C75.7259 131.904 76.9499 130.896 76.9499 129.24V123.408H79.9379V129.168C79.9379 130.968 80.9459 131.904 82.8179 131.904H83.8259ZM76.1579 139.536V142.416H66.6539V139.536H76.1579ZM90.4803 123.408H93.4683V129.276C93.4683 132.876 91.0923 135 87.5643 135H83.8203C83.6763 135 83.4603 134.892 83.4603 133.488C83.4603 132.048 83.6763 131.904 83.8203 131.904H87.5643C89.2563 131.904 90.4803 130.968 90.4803 129.24V123.408ZM91.4523 139.536V142.416H81.9483V139.536H91.4523ZM106.092 131.904C106.272 131.904 106.452 132.048 106.452 133.488C106.452 134.892 106.272 135 106.092 135H105.156C101.448 135 99.5759 132.66 99.5759 128.7V111.708H102.564V128.556C102.564 130.788 103.464 131.904 105.3 131.904H106.092ZM106.937 131.904C108.665 131.904 109.493 131.148 109.493 129.6V128.124C109.493 123.516 112.085 120.708 116.369 120.708C120.653 120.708 123.029 123.264 123.029 127.98V128.988C123.029 131.076 123.893 131.904 125.513 131.904H126.413C126.557 131.904 126.773 132.048 126.773 133.488C126.773 134.892 126.557 135 126.413 135H125.513C123.461 135 122.093 134.316 121.445 132.696C120.437 134.244 118.457 135 116.261 135C113.741 135 112.049 134.208 111.221 132.768C110.429 134.316 109.169 135 106.937 135H106.109C105.965 135 105.749 134.892 105.749 133.488C105.749 132.048 105.965 131.904 106.109 131.904H106.937ZM120.041 127.98C120.041 125.172 118.817 123.732 116.261 123.732C113.705 123.732 112.481 125.172 112.481 128.124C112.481 130.464 113.849 131.904 116.261 131.904C118.745 131.904 120.041 130.644 120.041 127.98ZM134.422 119.088H130.606V116.1H134.422V119.088ZM136.078 129.276C136.078 132.876 133.702 135 130.174 135H126.43C126.286 135 126.07 134.892 126.07 133.488C126.07 132.048 126.286 131.904 126.43 131.904H130.174C131.866 131.904 133.09 130.968 133.09 129.24V123.408H136.078V129.276ZM158.179 120.384V117.54H167.683V120.384H158.179ZM179.419 131.904C179.563 131.904 179.779 132.048 179.779 133.488C179.779 134.892 179.563 135 179.419 135H178.339C176.215 135 174.703 134.316 174.019 132.876C173.155 134.316 171.571 135 169.483 135H156.775C152.455 135 150.403 132.516 150.403 128.772V123.408H153.391V128.376C153.391 130.536 154.435 131.904 156.955 131.904H169.483C171.355 131.904 172.543 130.896 172.543 129.276V123.408H175.531V129.168C175.531 130.968 176.539 131.904 178.447 131.904H179.419ZM183.73 131.904C185.566 131.904 186.79 130.896 186.79 129.24V123.408H189.778V129.168C189.778 130.968 190.786 131.904 192.658 131.904H193.666C193.81 131.904 194.026 132.048 194.026 133.452C194.026 134.892 193.81 135 193.666 135H192.55C190.426 135 188.914 134.316 188.23 132.876C187.366 134.316 185.782 135 183.73 135H179.41C179.266 135 179.05 134.892 179.05 133.488C179.05 132.048 179.266 131.904 179.41 131.904H183.73ZM185.062 142.56H181.246V139.536H185.062V142.56ZM201.352 111.312V114.156H198.076V111.312H201.352ZM204.448 116.244V119.088H194.944V116.244H204.448ZM200.344 129.24V123.408H203.332V129.276C203.332 132.876 200.956 135 197.428 135H193.684C193.54 135 193.324 134.892 193.324 133.488C193.324 132.048 193.54 131.904 193.684 131.904H197.428C199.12 131.904 200.344 130.968 200.344 129.24ZM224.009 120.132V116.028H234.197V120.132H224.009ZM245.033 130.212C245.177 130.212 245.393 130.392 245.393 132.696C245.393 134.856 245.177 135 245.033 135H243.449C241.541 135 240.101 134.496 239.345 133.272C238.445 134.496 237.041 135 235.061 135H223.253C218.897 135 216.557 132.624 216.557 128.376V122.616H221.129V127.764C221.129 129.348 221.813 130.212 223.469 130.212H235.061C236.249 130.212 237.077 129.528 237.077 128.412V122.616H241.649V128.232C241.649 129.528 242.333 130.212 243.665 130.212H245.033ZM250.591 122.616H255.163V128.592C255.163 132.588 252.607 135 248.575 135H245.047C244.903 135 244.687 134.892 244.687 132.696C244.687 130.392 244.903 130.212 245.047 130.212H248.575C249.763 130.212 250.591 129.528 250.591 128.376V122.616ZM253.003 138.744V142.848H242.851V138.744H253.003ZM277.111 130.212C277.255 130.212 277.471 130.392 277.471 132.696C277.471 134.856 277.255 135 277.111 135H274.267C273.763 140.4 270.271 143.604 264.979 143.604H260.047L259.651 138.816H265.267C268.111 138.816 269.767 137.304 269.767 135H267.247C261.991 135 260.011 132.84 260.011 128.232C260.011 123.552 262.891 120.312 267.247 120.312C271.639 120.312 274.339 123.372 274.339 128.448V130.212H277.111ZM264.547 128.052C264.547 129.564 265.231 130.248 267.427 130.248H269.767V128.376C269.767 126.036 268.795 124.848 267.103 124.848C265.411 124.848 264.547 126.216 264.547 128.052ZM300.473 116.316H295.577V112.212H300.473V116.316ZM278.837 130.212C280.493 130.212 281.321 129.384 281.321 128.052V122.616H285.929V127.764C285.929 128.88 286.073 129.204 286.721 129.528C290.753 122.58 294.173 119.592 298.241 119.592C302.417 119.592 305.297 122.688 305.297 127.188C305.297 128.196 305.189 129.024 304.865 129.852C305.405 130.176 306.197 130.212 307.169 130.212H308.069C308.213 130.212 308.429 130.392 308.429 132.696C308.429 134.856 308.213 135 308.069 135H307.169C305.009 135 303.605 134.64 302.417 133.488C301.085 134.46 299.321 135 297.341 135H288.197C285.785 135 284.273 134.424 283.445 133.272C282.545 134.496 281.141 135 278.837 135H277.109C276.965 135 276.749 134.892 276.749 132.696C276.749 130.392 276.965 130.212 277.109 130.212H278.837ZM297.341 130.212C299.501 130.212 300.725 129.096 300.725 127.188C300.725 125.388 299.501 124.2 297.881 124.2C295.865 124.2 293.813 126.216 291.149 130.212H297.341ZM311.214 130.212C310.71 129.348 310.53 128.34 310.53 127.512C310.53 123.336 313.446 120.096 317.91 120.096C319.746 120.096 321.366 120.456 323.382 121.716L321.87 125.568C320.214 124.848 318.99 124.668 317.946 124.668C316.29 124.668 315.102 125.856 315.102 127.368C315.102 129.024 316.11 130.212 317.946 130.212H324.246L323.886 135H308.082C307.938 135 307.722 134.892 307.722 132.696C307.722 130.392 307.938 130.212 308.082 130.212H311.214ZM356.55 135.54C356.55 134.028 355.686 133.272 353.886 133.272H347.046V126.72C347.046 122.76 349.602 120.024 353.706 120.024H358.278L358.53 123.012H353.634C351.51 123.012 350.07 124.56 350.07 126.612V130.176H354.39C357.918 130.176 359.538 132.12 359.538 135.36C359.538 139.968 355.218 143.784 349.674 143.784H346.902C340.818 143.784 337.47 140.076 337.47 133.812V127.008H340.458V133.74C340.458 138.276 342.69 140.688 346.974 140.688H349.674C353.814 140.688 356.55 138.492 356.55 135.54ZM365.674 135V111.708H368.662V135H365.674ZM379.973 129.132C379.973 130.896 381.017 131.904 382.997 131.904H383.465C383.609 131.904 383.825 132.084 383.825 133.488C383.825 134.892 383.609 135 383.465 135H382.997C381.701 135 380.477 134.496 379.973 133.776V134.208C379.865 140.04 376.121 143.784 370.541 143.784H368.021L367.733 140.688H370.469C374.537 140.688 376.985 138.204 376.985 133.956V123.408H379.973V129.132ZM393.105 129.276C393.105 132.876 390.729 135 387.201 135H383.457C383.313 135 383.097 134.892 383.097 133.488C383.097 132.048 383.313 131.904 383.457 131.904H387.201C388.893 131.904 390.117 130.968 390.117 129.24V123.408H393.105V129.276ZM388.245 142.56H384.429V139.536H388.245V142.56ZM407.791 135V111.708H410.779V135H407.791ZM422.091 133.956C422.091 140.04 418.239 143.784 412.659 143.784H410.139L409.851 140.688H412.587C416.655 140.688 419.103 138.204 419.103 133.956V123.408H422.091V133.956ZM441.079 118.98L443.203 116.856L450.115 124.812C451.735 126.648 452.275 128.16 452.275 129.672C452.275 132.768 450.079 135 445.975 135H435.715L435.427 131.904H445.975C448.099 131.904 449.287 131.004 449.287 129.636C449.287 128.772 448.855 127.944 447.811 126.72L441.079 118.98ZM475.121 131.904C475.301 131.904 475.481 132.048 475.481 133.488C475.481 134.892 475.301 135 475.121 135H471.665C471.233 140.508 467.705 143.784 462.377 143.784H457.949L457.661 140.688H462.413C466.265 140.688 468.713 138.492 468.749 135H465.149C460.145 135 458.165 132.984 458.165 128.7C458.165 124.164 460.973 121.068 465.005 121.068C469.181 121.068 471.737 124.056 471.737 128.88V131.904H475.121ZM461.153 128.52C461.153 130.968 462.197 131.904 465.329 131.904H468.749V129.096C468.749 125.784 467.381 124.092 464.825 124.092C462.593 124.092 461.153 125.892 461.153 128.52ZM486.701 115.956H482.885V112.968H486.701V115.956ZM477.629 131.904C481.265 131.904 483.317 131.4 485.837 129.96L491.309 126.756C490.553 124.128 489.365 123.3 486.773 123.3H478.349L478.745 120.168H487.277C491.561 120.168 493.433 122.076 494.801 127.764L487.241 132.444C484.181 134.352 481.769 135 477.521 135H475.109C474.965 135 474.749 134.892 474.749 133.488C474.749 132.048 474.965 131.904 475.109 131.904H477.629ZM515.824 120.384V117.54H525.328V120.384H515.824ZM530.188 123.408H533.176V129.348C533.176 132.876 530.8 135 527.308 135H514.42C510.1 135 508.048 132.516 508.048 128.772V123.408H511.036V128.376C511.036 130.536 512.08 131.904 514.6 131.904H527.308C529 131.904 530.188 130.896 530.188 129.276V123.408ZM545.826 131.904C546.006 131.904 546.186 132.048 546.186 133.488C546.186 134.892 546.006 135 545.826 135H544.89C541.182 135 539.31 132.66 539.31 128.7V111.708H542.298V128.556C542.298 130.788 543.198 131.904 545.034 131.904H545.826ZM550.344 131.904C549.264 130.86 548.868 129.492 548.868 128.052C548.868 123.984 551.676 120.96 555.888 120.96C557.616 120.96 559.236 121.356 561.144 122.544L560.1 124.992C558.444 124.236 557.112 123.984 555.888 123.984C553.584 123.984 551.856 125.676 551.856 127.872C551.856 130.212 553.332 131.904 555.672 131.904H562.116L561.828 135H545.844C545.7 135 545.484 134.892 545.484 133.488C545.484 132.048 545.7 131.904 545.844 131.904H550.344ZM568.244 135V111.708H571.232V131.904H576.02C577.712 131.904 578.936 130.896 578.936 129.24V111.708H581.924V129.06C581.924 131.112 583.148 131.904 584.696 131.904H585.596C585.74 131.904 585.956 132.048 585.956 133.488C585.956 134.892 585.74 135 585.596 135H584.588C582.5 135 580.988 134.244 580.412 132.84C579.584 134.244 578.072 135 576.02 135H568.244ZM588.989 131.904V111.708H591.977V127.008C595.145 122.112 598.025 120.204 600.905 120.204C604.793 120.204 607.673 123.264 607.673 127.62C607.673 132.012 604.793 135 600.149 135H585.605C585.461 135 585.245 134.892 585.245 133.488C585.245 132.048 585.461 131.904 585.605 131.904H588.989ZM600.149 131.904C603.029 131.904 604.685 130.248 604.685 127.62C604.685 124.992 602.957 123.192 600.689 123.192C597.917 123.192 595.253 125.964 591.761 131.904H600.149ZM613.842 135V111.708H616.83V135H613.842ZM638.428 131.904C638.608 131.904 638.788 132.048 638.788 133.488C638.788 134.892 638.608 135 638.428 135H637.492C633.784 135 631.912 132.66 631.912 128.7V111.708H634.9V128.556C634.9 130.788 635.8 131.904 637.636 131.904H638.428ZM650.397 115.848H646.581V112.86H650.397V115.848ZM644.205 131.904C642.585 130.788 641.577 128.88 641.577 126.9C641.577 123.084 644.565 120.06 648.489 120.06C652.521 120.06 655.329 122.796 655.329 126.72C655.329 128.88 654.429 130.608 652.521 131.904H658.461C658.605 131.904 658.821 132.048 658.821 133.488C658.821 134.892 658.605 135 658.461 135H653.673C650.757 135 649.461 134.856 648.561 134.424C647.661 134.856 646.185 135 643.305 135H638.445C638.301 135 638.085 134.892 638.085 133.488C638.085 132.048 638.301 131.904 638.445 131.904H644.205ZM648.489 123.084C646.185 123.084 644.565 124.704 644.565 126.9C644.565 128.988 645.969 130.716 648.489 131.832C651.153 130.644 652.341 128.808 652.341 126.9C652.341 124.596 650.865 123.084 648.489 123.084ZM661.833 131.904V111.708H664.821V127.008C667.989 122.112 670.869 120.204 673.749 120.204C677.637 120.204 680.517 123.264 680.517 127.62C680.517 128.952 680.265 130.104 679.689 131.112C680.373 131.724 681.381 131.904 682.965 131.904H683.793C683.937 131.904 684.153 132.048 684.153 133.488C684.153 134.892 683.937 135 683.793 135H682.965C680.553 135 679.221 134.64 678.033 133.38C676.737 134.424 675.009 135 672.993 135H658.449C658.305 135 658.089 134.892 658.089 133.488C658.089 132.048 658.305 131.904 658.449 131.904H661.833ZM672.993 131.904C675.873 131.904 677.529 130.248 677.529 127.62C677.529 124.992 675.801 123.192 673.533 123.192C670.761 123.192 668.097 125.964 664.605 131.904H672.993ZM684.913 131.904C686.605 131.904 687.793 130.896 687.793 129.24V111.708H690.817V129.276C690.817 132.876 688.441 135 684.913 135H683.797C683.653 135 683.437 134.892 683.437 133.488C683.437 132.048 683.653 131.904 683.797 131.904H684.913Z" fill="#6950A1"/>
</g>
</g>
<defs>
<filter id="filter0_dd_732_181" x="0.5" y="0" width="734" height="199" filterUnits="userSpaceOnUse" color-interpolation-filters="sRGB">
<feFlood flood-opacity="0" result="BackgroundImageFix"/>
<feColorMatrix in="SourceAlpha" type="matrix" values="0 0 0 0 0 0 0 0 0 0 0 0 0 0 0 0 0 0 127 0" result="hardAlpha"/>
<feOffset dx="-4" dy="8"/>
<feGaussianBlur stdDeviation="4"/>
<feComposite in2="hardAlpha" operator="out"/>
<feColorMatrix type="matrix" values="0 0 0 0 0 0 0 0 0 0 0 0 0 0 0 0 0 0 0.1 0"/>
<feBlend mode="normal" in2="BackgroundImageFix" result="effect1_dropShadow_732_181"/>
<feColorMatrix in="SourceAlpha" type="matrix" values="0 0 0 0 0 0 0 0 0 0 0 0 0 0 0 0 0 0 127 0" result="hardAlpha"/>
<feOffset dx="2" dy="1"/>
<feGaussianBlur stdDeviation="3"/>
<feComposite in2="hardAlpha" operator="out"/>
<feColorMatrix type="matrix" values="0 0 0 0 0 0 0 0 0 0 0 0 0 0 0 0 0 0 0.15 0"/>
<feBlend mode="normal" in2="effect1_dropShadow_732_181" result="effect2_dropShadow_732_181"/>
<feBlend mode="normal" in="SourceGraphic" in2="effect2_dropShadow_732_181" result="shape"/>
</filter>
<filter id="filter1_d_732_181" x="13.873" y="47.4919" width="676.943" height="122.292" filterUnits="userSpaceOnUse" color-interpolation-filters="sRGB">
<feFlood flood-opacity="0" result="BackgroundImageFix"/>
<feColorMatrix in="SourceAlpha" type="matrix" values="0 0 0 0 0 0 0 0 0 0 0 0 0 0 0 0 0 0 127 0" result="hardAlpha"/>
<feOffset dx="-16" dy="16"/>
<feGaussianBlur stdDeviation="5"/>
<feComposite in2="hardAlpha" operator="out"/>
<feColorMatrix type="matrix" values="0 0 0 0 0 0 0 0 0 0 0 0 0 0 0 0 0 0 0.25 0"/>
<feBlend mode="normal" in2="BackgroundImageFix" result="effect1_dropShadow_732_181"/>
<feBlend mode="normal" in="SourceGraphic" in2="effect1_dropShadow_732_181" result="shape"/>
</filter>
</defs>
</svg>
