<svg width="791" height="281" viewBox="0 0 791 281" fill="none" xmlns="http://www.w3.org/2000/svg">
<g filter="url(#filter0_dd_779_382)">
<rect x="12" y="5" width="771" height="260" rx="16" fill="white" fill-opacity="0.9" shape-rendering="crispEdges"/>
<g filter="url(#filter1_d_779_382)">
<path d="M61.1821 71.96C61.4595 73.0907 61.9715 73.88 62.7181 74.328C63.4861 74.7547 64.4355 74.968 65.5661 74.968H66.2061L66.4301 76.92L66.2061 79H65.5661C64.2435 79 62.9528 78.7013 61.6941 78.104C60.4568 77.5067 59.4541 76.568 58.6861 75.288C58.0888 76.0773 57.3741 76.6853 56.5421 77.112C55.7315 77.5173 54.8781 77.72 53.9821 77.72C52.9155 77.72 51.8701 77.432 50.8461 76.856C49.8435 76.28 49.0648 75.4693 48.5101 74.424C47.9555 73.3787 47.6781 72.28 47.6781 71.128C47.6781 69.8907 47.9555 68.8133 48.5101 67.896C48.8728 67.2773 49.2675 66.7653 49.6941 66.36C50.1208 65.9547 50.7715 65.5067 51.6461 65.016C52.5208 64.5253 53.7795 63.928 55.4221 63.224L55.0381 61.528L58.4941 60.632L61.1821 71.96ZM51.5821 69.944C51.3261 70.3493 51.1981 70.776 51.1981 71.224C51.1981 71.6507 51.3048 72.0667 51.5181 72.472C51.7528 72.856 52.0621 73.176 52.4461 73.432C52.8728 73.7093 53.3635 73.848 53.9181 73.848C54.3661 73.848 54.8035 73.752 55.2301 73.56C55.6781 73.368 56.0621 73.08 56.3821 72.696C56.8301 72.184 57.0541 71.512 57.0541 70.68C57.0541 70.5307 57.0328 70.2213 56.9901 69.752L56.3181 67C54.8035 67.5973 53.7048 68.1307 53.0221 68.6C52.3608 69.048 51.8808 69.496 51.5821 69.944ZM65.8869 74.968H71.1029C72.4895 74.968 73.5135 74.8933 74.1749 74.744C74.8575 74.5733 75.3375 74.2747 75.6149 73.848L73.1829 73.592C71.4762 73.3787 70.1322 72.7813 69.1509 71.8C68.1909 70.7973 67.7109 69.3893 67.7109 67.576C67.7109 66.3173 67.9669 65.1973 68.4789 64.216C69.0122 63.2133 69.7269 62.4453 70.6229 61.912C71.5402 61.3573 72.5322 61.08 73.5989 61.08C74.7295 61.08 75.7429 61.3573 76.6389 61.912C77.5349 62.4453 78.2282 63.2133 78.7189 64.216C79.2095 65.1973 79.4549 66.3173 79.4549 67.576V70.328C79.4549 73.0373 78.8255 75.16 77.5669 76.696C76.3082 78.232 74.1535 79 71.1029 79H65.8869V74.968ZM68.6389 55.352H72.2549V58.968H68.6389V55.352ZM71.1349 67.544C71.1349 68.184 71.3162 68.696 71.6789 69.08C72.0629 69.4427 72.6602 69.6667 73.4709 69.752L76.0629 70.232V67.544C76.0629 66.7333 75.8602 66.0827 75.4549 65.592C75.0495 65.1013 74.4309 64.856 73.5989 64.856C72.8095 64.856 72.2015 65.112 71.7749 65.624C71.3482 66.1147 71.1349 66.7547 71.1349 67.544ZM74.5269 55.352H78.1749V58.968H74.5269V55.352ZM99.4156 79C98.7543 79 98.0823 78.8613 97.3996 78.584C96.7383 78.3067 96.1516 77.8907 95.6396 77.336C95.085 77.8907 94.4556 78.3067 93.7516 78.584C93.0476 78.8613 92.3543 79 91.6716 79H82.6156V74.968H91.4156C92.205 74.968 92.7916 74.7867 93.1756 74.424C93.581 74.0613 93.7836 73.4747 93.7836 72.664V57.848H97.3036V72.952C97.3036 74.296 98.0076 74.968 99.4156 74.968H100.312L100.536 76.92L100.312 79H99.4156ZM86.8076 58.168L87.7036 72.568L84.1836 72.856L83.2556 58.456L86.8076 58.168ZM115.277 79H99.9806V74.968H104.077C103.33 73.9653 102.957 72.824 102.957 71.544C102.957 70.392 103.234 69.3253 103.789 68.344C104.343 67.3627 105.09 66.584 106.029 66.008C106.989 65.4107 108.034 65.112 109.165 65.112C110.146 65.112 110.967 65.2507 111.629 65.528C112.311 65.8053 113.186 66.2853 114.253 66.968C114.338 67.032 114.434 67.096 114.541 67.16C114.669 67.224 114.797 67.2987 114.925 67.384L113.261 70.328C112.173 69.7093 111.383 69.304 110.893 69.112C110.402 68.8987 109.858 68.792 109.261 68.792C108.471 68.792 107.789 69.0587 107.213 69.592C106.637 70.104 106.349 70.744 106.349 71.512C106.349 72.5573 106.818 73.4 107.757 74.04C108.717 74.6587 110.221 74.968 112.269 74.968H115.277V79ZM137.817 69.944C138.585 71.1387 138.969 72.408 138.969 73.752C138.969 74.8613 138.703 75.7893 138.169 76.536C137.529 77.432 136.751 78.072 135.833 78.456C134.937 78.8187 133.892 79 132.697 79H130.969C129.711 79 128.591 78.808 127.609 78.424C126.628 78.0187 125.828 77.5707 125.209 77.08L126.905 73.816C126.969 73.8373 127.183 73.9547 127.545 74.168C127.908 74.3813 128.399 74.5733 129.017 74.744C129.657 74.8933 130.319 74.968 131.001 74.968H132.601C133.348 74.968 133.924 74.9147 134.329 74.808C134.756 74.68 135.065 74.456 135.257 74.136C135.407 73.9013 135.481 73.688 135.481 73.496C135.481 73.112 135.268 72.6107 134.841 71.992C133.455 69.8373 131.833 67.384 129.977 64.632L132.953 62.392L137.817 69.944ZM148.554 68.568V77.592C148.554 80.6 147.786 82.9253 146.25 84.568C144.714 86.232 142.495 87.064 139.594 87.064H137.578V83.032H139.594C140.959 83.032 142.026 82.8613 142.794 82.52C143.583 82.1787 144.149 81.6133 144.49 80.824C144.853 80.056 145.034 78.9787 145.034 77.592V68.568H148.554ZM155.715 83.192C157.102 83.192 158.158 83.0533 158.883 82.776C159.609 82.4987 160.11 82.0613 160.387 81.464C160.665 80.888 160.814 80.0667 160.835 79H157.859C155.897 79 154.339 78.424 153.187 77.272C152.035 76.12 151.459 74.52 151.459 72.472C151.459 71.0213 151.726 69.7307 152.259 68.6C152.814 67.448 153.571 66.552 154.531 65.912C155.491 65.272 156.59 64.952 157.827 64.952C159.129 64.952 160.27 65.272 161.251 65.912C162.254 66.5307 163.022 67.416 163.555 68.568C164.11 69.6987 164.387 71 164.387 72.472V74.968H166.179L166.403 77.016L166.179 79H164.387C164.345 81.496 163.619 83.4907 162.211 84.984C160.825 86.4773 158.659 87.224 155.715 87.224H152.003V83.192H155.715ZM154.883 72.344C154.883 73.304 155.118 74.008 155.587 74.456C156.078 74.8827 156.835 75.096 157.859 75.096H160.835V72.408C160.835 71.2773 160.59 70.392 160.099 69.752C159.63 69.112 158.873 68.792 157.827 68.792C156.867 68.792 156.131 69.1227 155.619 69.784C155.129 70.424 154.883 71.2773 154.883 72.344ZM165.856 74.968H166.72C167.146 74.968 167.488 74.8613 167.744 74.648C168 74.4347 168.192 74.0933 168.32 73.624L169.184 70.36C169.674 68.5893 170.453 67.2133 171.52 66.232C172.586 65.2507 173.866 64.76 175.36 64.76C176.554 64.76 177.61 65.0907 178.528 65.752C179.466 66.4133 180.192 67.32 180.704 68.472C181.237 69.624 181.504 70.9147 181.504 72.344C181.504 74.0293 181.237 75.416 180.704 76.504C180.17 77.592 179.498 78.3813 178.688 78.872C177.877 79.3627 177.034 79.608 176.16 79.608C175.392 79.608 174.581 79.4587 173.728 79.16C172.896 78.8613 171.701 78.328 170.144 77.56C169.674 78.008 169.141 78.36 168.544 78.616C167.946 78.872 167.349 79 166.752 79H165.856V74.968ZM171.872 74.104C173.109 74.7227 174.016 75.1387 174.592 75.352C175.189 75.5653 175.744 75.672 176.256 75.672C176.853 75.672 177.312 75.4267 177.632 74.936C177.973 74.424 178.144 73.56 178.144 72.344C178.144 71.1707 177.898 70.2747 177.408 69.656C176.917 69.016 176.234 68.696 175.36 68.696C174.72 68.696 174.144 68.9413 173.632 69.432C173.141 69.9013 172.778 70.584 172.544 71.48L171.872 74.104ZM196.927 70.872C195.732 73.5173 195.135 75.7253 195.135 77.496C195.135 79.2453 195.562 80.6 196.415 81.56C197.29 82.5413 198.634 83.032 200.447 83.032H203.423C204.66 83.032 205.631 82.9253 206.335 82.712C207.06 82.4987 207.583 82.168 207.903 81.72C208.223 81.2933 208.415 80.7173 208.479 79.992V79.8C208.479 79.6507 208.447 79.544 208.383 79.48C208.319 79.4373 208.191 79.384 207.999 79.32L200.895 77.432C200.596 76.344 200.447 75.32 200.447 74.36C200.447 73.144 200.65 72.0027 201.055 70.936C201.46 69.848 201.994 68.92 202.655 68.152C203.508 67.1707 204.5 66.4347 205.631 65.944C206.783 65.432 207.988 65.176 209.247 65.176C209.844 65.176 210.442 65.2293 211.039 65.336C211.658 65.4213 212.159 65.5493 212.543 65.72L211.711 69.4C211.071 69.1867 210.335 69.08 209.503 69.08C207.818 69.08 206.431 69.624 205.343 70.712C204.34 71.7573 203.882 72.8773 203.967 74.072L206.143 74.68C206.612 74.808 207.156 74.9573 207.775 75.128C208.394 75.2987 208.97 75.4693 209.503 75.64C210.463 75.9387 211.124 76.3653 211.487 76.92C211.871 77.4747 212.063 78.264 212.063 79.288C212.063 81.72 211.316 83.6187 209.823 84.984C208.351 86.3707 206.218 87.064 203.423 87.064H200.447C198.634 87.064 197.055 86.6373 195.711 85.784C194.388 84.9307 193.375 83.7787 192.671 82.328C191.988 80.8773 191.647 79.2773 191.647 77.528C191.647 76.2907 191.86 74.936 192.287 73.464C192.714 71.9707 193.236 70.5627 193.855 69.24L196.927 70.872ZM222.999 79C218.86 79 216.791 76.6533 216.791 71.96L216.759 57.848H220.279L220.311 71.96C220.311 72.8773 220.364 73.5387 220.471 73.944C220.599 74.328 220.844 74.5947 221.207 74.744C221.569 74.8933 222.167 74.968 222.999 74.968H223.927L224.087 77.048L223.927 79H222.999ZM240.406 61.944L245.43 69.592C246.198 70.7653 246.582 72.0347 246.582 73.4C246.582 74.7013 246.23 75.7893 245.526 76.664C244.864 77.5173 243.894 78.1467 242.614 78.552C241.355 78.936 239.659 79.128 237.526 79.128C235.563 79.128 233.686 78.808 231.894 78.168C230.102 78.7227 228.192 79 226.166 79H223.606V74.968H226.454H226.998C225.974 73.7307 225.462 72.376 225.462 70.904C225.462 69.6453 225.75 68.4827 226.326 67.416C226.923 66.3493 227.723 65.5067 228.726 64.888C229.75 64.248 230.859 63.928 232.054 63.928C233.227 63.928 234.304 64.248 235.286 64.888C236.288 65.5067 237.078 66.3493 237.654 67.416C238.251 68.4613 238.55 69.6133 238.55 70.872C238.55 72.4507 238.016 73.8587 236.95 75.096H237.302C240.288 75.096 242.059 74.7973 242.614 74.2C242.848 73.9653 242.966 73.6667 242.966 73.304C242.966 72.8347 242.763 72.2907 242.358 71.672L237.43 64.152L240.406 61.944ZM229.014 71C229.014 71.704 229.259 72.3333 229.75 72.888C230.262 73.4213 230.976 73.8693 231.894 74.232C232.896 73.8907 233.664 73.4427 234.198 72.888C234.731 72.3333 234.998 71.6933 234.998 70.968C234.998 70.0507 234.72 69.304 234.166 68.728C233.611 68.1307 232.896 67.832 232.022 67.832C231.126 67.832 230.4 68.1307 229.846 68.728C229.291 69.304 229.014 70.0613 229.014 71ZM262.651 71.96C262.928 73.0907 263.44 73.88 264.187 74.328C264.955 74.7547 265.904 74.968 267.035 74.968H267.675L267.899 76.92L267.675 79H267.035C265.712 79 264.422 78.7013 263.163 78.104C261.926 77.5067 260.923 76.568 260.155 75.288C259.558 76.0773 258.843 76.6853 258.011 77.112C257.2 77.5173 256.347 77.72 255.451 77.72C254.384 77.72 253.339 77.432 252.315 76.856C251.312 76.28 250.534 75.4693 249.979 74.424C249.424 73.3787 249.147 72.28 249.147 71.128C249.147 69.8907 249.424 68.8133 249.979 67.896C250.342 67.2773 250.736 66.7653 251.163 66.36C251.59 65.9547 252.24 65.5067 253.115 65.016C253.99 64.5253 255.248 63.928 256.891 63.224L256.507 61.528L259.963 60.632L262.651 71.96ZM253.051 69.944C252.795 70.3493 252.667 70.776 252.667 71.224C252.667 71.6507 252.774 72.0667 252.987 72.472C253.222 72.856 253.531 73.176 253.915 73.432C254.342 73.7093 254.832 73.848 255.387 73.848C255.835 73.848 256.272 73.752 256.699 73.56C257.147 73.368 257.531 73.08 257.851 72.696C258.299 72.184 258.523 71.512 258.523 70.68C258.523 70.5307 258.502 70.2213 258.459 69.752L257.787 67C256.272 67.5973 255.174 68.1307 254.491 68.6C253.83 69.048 253.35 69.496 253.051 69.944ZM277.148 68.568V73.176C277.148 73.8373 277.318 74.3067 277.66 74.584C278.001 74.84 278.534 74.968 279.26 74.968H280.956L281.148 77.08L280.956 79H279.26C278.598 79 277.905 78.8613 277.18 78.584C276.454 78.3067 275.814 77.8907 275.26 77.336C274.705 77.8693 274.044 78.2853 273.276 78.584C272.508 78.8613 271.729 79 270.94 79H267.356V74.968H270.94C271.878 74.968 272.55 74.8187 272.956 74.52C273.382 74.2 273.596 73.6773 273.596 72.952V68.568H277.148ZM268.444 61.24H272.06V64.856H268.444V61.24ZM274.364 61.24H277.98V64.856H274.364V61.24ZM280.637 74.968H282.845C283.677 74.968 284.274 74.7973 284.637 74.456C285 74.0933 285.181 73.5173 285.181 72.728V68.568H288.733V72.92C288.733 74.2427 289.458 74.9253 290.909 74.968C292.488 74.9253 293.277 74.168 293.277 72.696L293.245 68.568H296.797V72.92C296.797 73.624 296.968 74.136 297.309 74.456C297.672 74.776 298.205 74.9467 298.909 74.968C299.656 74.9467 300.232 74.7547 300.637 74.392C301.042 74.008 301.213 73.496 301.149 72.856C301.085 72.1733 300.946 71.288 300.733 70.2C300.541 69.112 300.413 68.3973 300.349 68.056C300.306 67.928 300.264 67.7147 300.221 67.416L303.581 66.552C303.837 67.5547 304.072 68.7387 304.285 70.104C304.52 71.448 304.637 72.504 304.637 73.272C304.637 74.2533 304.424 75.1813 303.997 76.056C303.592 76.9307 302.952 77.6453 302.077 78.2C301.224 78.7333 300.168 79 298.909 79C298.141 79 297.405 78.84 296.701 78.52C296.018 78.1787 295.432 77.6987 294.941 77.08C294.45 77.6773 293.853 78.1467 293.149 78.488C292.466 78.8293 291.698 79 290.845 79C290.12 79 289.373 78.8187 288.605 78.456C287.837 78.072 287.25 77.6133 286.845 77.08C286.418 77.6773 285.842 78.1467 285.117 78.488C284.413 78.8293 283.613 79 282.717 79H280.637V74.968ZM320.067 69.944C320.835 71.1387 321.219 72.408 321.219 73.752C321.219 74.8613 320.953 75.7893 320.419 76.536C319.779 77.432 319.001 78.072 318.083 78.456C317.187 78.8187 316.142 79 314.947 79H313.219C311.961 79 310.841 78.808 309.859 78.424C308.878 78.0187 308.078 77.5707 307.459 77.08L309.155 73.816C309.219 73.8373 309.433 73.9547 309.795 74.168C310.158 74.3813 310.649 74.5733 311.267 74.744C311.907 74.8933 312.569 74.968 313.251 74.968H314.851C315.598 74.968 316.174 74.9147 316.579 74.808C317.006 74.68 317.315 74.456 317.507 74.136C317.657 73.9013 317.731 73.688 317.731 73.496C317.731 73.112 317.518 72.6107 317.091 71.992C315.705 69.8373 314.083 67.384 312.227 64.632L315.203 62.392L320.067 69.944ZM340.523 68.568V77.592C340.523 80.6 339.755 82.9253 338.219 84.568C336.683 86.232 334.464 87.064 331.563 87.064H329.547V83.032H331.563C332.928 83.032 333.995 82.8613 334.763 82.52C335.552 82.1787 336.118 81.6133 336.459 80.824C336.822 80.056 337.003 78.9787 337.003 77.592V68.568H340.523ZM336.779 60.664H340.683V64.504H336.779V60.664ZM347.684 83.032C349.071 83.032 350.127 82.8933 350.852 82.616C351.577 82.3387 352.079 81.9013 352.356 81.304C352.633 80.728 352.783 79.9067 352.804 78.84H349.828C347.865 78.84 346.308 78.264 345.156 77.112C344.004 75.96 343.428 74.36 343.428 72.312C343.428 70.8613 343.695 69.5707 344.228 68.44C344.783 67.288 345.54 66.392 346.5 65.752C347.46 65.112 348.559 64.792 349.796 64.792C351.097 64.792 352.239 65.112 353.22 65.752C354.223 66.3707 354.991 67.256 355.524 68.408C356.079 69.5387 356.356 70.84 356.356 72.312V78.584C356.356 81.1653 355.663 83.224 354.276 84.76C352.889 86.296 350.692 87.064 347.684 87.064H343.972V83.032H347.684ZM346.852 72.184C346.852 73.144 347.087 73.848 347.556 74.296C348.047 74.7227 348.804 74.936 349.828 74.936H352.804V72.248C352.804 71.1173 352.559 70.232 352.068 69.592C351.599 68.952 350.841 68.632 349.796 68.632C348.836 68.632 348.1 68.9627 347.588 69.624C347.097 70.264 346.852 71.1173 346.852 72.184ZM368.367 68.568V77.592C368.367 80.6 367.599 82.9253 366.063 84.568C364.527 86.232 362.308 87.064 359.407 87.064H357.391V83.032H359.407C360.772 83.032 361.839 82.8613 362.607 82.52C363.396 82.1787 363.961 81.6133 364.303 80.824C364.665 80.056 364.847 78.9787 364.847 77.592V68.568H368.367ZM391.495 71.96C391.772 73.0907 392.284 73.88 393.031 74.328C393.799 74.7547 394.748 74.968 395.879 74.968H396.519L396.743 76.92L396.519 79H395.879C394.556 79 393.265 78.7013 392.007 78.104C390.769 77.5067 389.767 76.568 388.999 75.288C388.401 76.0773 387.687 76.6853 386.855 77.112C386.044 77.5173 385.191 77.72 384.295 77.72C383.228 77.72 382.183 77.432 381.159 76.856C380.156 76.28 379.377 75.4693 378.823 74.424C378.268 73.3787 377.991 72.28 377.991 71.128C377.991 69.8907 378.268 68.8133 378.823 67.896C379.185 67.2773 379.58 66.7653 380.007 66.36C380.433 65.9547 381.084 65.5067 381.959 65.016C382.833 64.5253 384.092 63.928 385.735 63.224L385.351 61.528L388.807 60.632L391.495 71.96ZM381.895 69.944C381.639 70.3493 381.511 70.776 381.511 71.224C381.511 71.6507 381.617 72.0667 381.831 72.472C382.065 72.856 382.375 73.176 382.759 73.432C383.185 73.7093 383.676 73.848 384.231 73.848C384.679 73.848 385.116 73.752 385.543 73.56C385.991 73.368 386.375 73.08 386.695 72.696C387.143 72.184 387.367 71.512 387.367 70.68C387.367 70.5307 387.345 70.2213 387.303 69.752L386.631 67C385.116 67.5973 384.017 68.1307 383.335 68.6C382.673 69.048 382.193 69.496 381.895 69.944ZM396.199 74.968H399.399C401.063 74.968 401.895 74.3493 401.895 73.112C401.895 72.5573 401.799 71.7253 401.607 70.616C401.437 69.5067 401.234 68.44 400.999 67.416L404.391 66.552C404.647 67.6827 404.882 68.888 405.095 70.168C405.33 71.4267 405.447 72.4293 405.447 73.176C405.447 74.1787 405.223 75.128 404.775 76.024C404.349 76.92 403.687 77.6453 402.791 78.2C401.917 78.7333 400.861 79 399.623 79H396.199V74.968ZM396.039 83.224H399.943V87.064H396.039V83.224ZM420.489 70.872C419.295 73.5173 418.697 75.7253 418.697 77.496C418.697 79.2453 419.124 80.6 419.977 81.56C420.852 82.5413 422.196 83.032 424.009 83.032H426.985C428.223 83.032 429.193 82.9253 429.897 82.712C430.623 82.4987 431.145 82.168 431.465 81.72C431.785 81.2933 431.977 80.7173 432.041 79.992V79.8C432.041 79.6507 432.009 79.544 431.945 79.48C431.881 79.4373 431.753 79.384 431.561 79.32L424.457 77.432C424.159 76.344 424.009 75.32 424.009 74.36C424.009 73.144 424.212 72.0027 424.617 70.936C425.023 69.848 425.556 68.92 426.217 68.152C427.071 67.1707 428.063 66.4347 429.193 65.944C430.345 65.432 431.551 65.176 432.809 65.176C433.407 65.176 434.004 65.2293 434.601 65.336C435.22 65.4213 435.721 65.5493 436.105 65.72L435.273 69.4C434.633 69.1867 433.897 69.08 433.065 69.08C431.38 69.08 429.993 69.624 428.905 70.712C427.903 71.7573 427.444 72.8773 427.529 74.072L429.705 74.68C430.175 74.808 430.719 74.9573 431.337 75.128C431.956 75.2987 432.532 75.4693 433.065 75.64C434.025 75.9387 434.687 76.3653 435.049 76.92C435.433 77.4747 435.625 78.264 435.625 79.288C435.625 81.72 434.879 83.6187 433.385 84.984C431.913 86.3707 429.78 87.064 426.985 87.064H424.009C422.196 87.064 420.617 86.6373 419.273 85.784C417.951 84.9307 416.937 83.7787 416.233 82.328C415.551 80.8773 415.209 79.2773 415.209 77.528C415.209 76.2907 415.423 74.936 415.849 73.464C416.276 71.9707 416.799 70.5627 417.417 69.24L420.489 70.872ZM452.161 69.944C452.929 71.1387 453.313 72.408 453.313 73.752C453.313 74.8613 453.046 75.7893 452.513 76.536C451.873 77.432 451.094 78.072 450.177 78.456C449.281 78.8187 448.236 79 447.041 79H445.313C444.054 79 442.934 78.808 441.953 78.424C440.972 78.0187 440.172 77.5707 439.553 77.08L441.249 73.816C441.313 73.8373 441.526 73.9547 441.889 74.168C442.252 74.3813 442.742 74.5733 443.361 74.744C444.001 74.8933 444.662 74.968 445.345 74.968H446.945C447.692 74.968 448.268 74.9147 448.673 74.808C449.1 74.68 449.409 74.456 449.601 74.136C449.75 73.9013 449.825 73.688 449.825 73.496C449.825 73.112 449.612 72.6107 449.185 71.992C447.798 69.8373 446.177 67.384 444.321 64.632L447.297 62.392L452.161 69.944ZM460.778 83.192C462.165 83.192 463.221 83.0533 463.946 82.776C464.671 82.4987 465.173 82.0613 465.45 81.464C465.727 80.888 465.877 80.0667 465.898 79H462.922C460.959 79 459.402 78.424 458.25 77.272C457.098 76.12 456.522 74.52 456.522 72.472C456.522 71.0213 456.789 69.7307 457.322 68.6C457.877 67.448 458.634 66.552 459.594 65.912C460.554 65.272 461.653 64.952 462.89 64.952C464.191 64.952 465.333 65.272 466.314 65.912C467.317 66.5307 468.085 67.416 468.618 68.568C469.173 69.6987 469.45 71 469.45 72.472V74.968H471.242L471.466 77.016L471.242 79H469.45C469.407 81.496 468.682 83.4907 467.274 84.984C465.887 86.4773 463.722 87.224 460.778 87.224H457.066V83.192H460.778ZM459.946 72.344C459.946 73.304 460.181 74.008 460.65 74.456C461.141 74.8827 461.898 75.096 462.922 75.096H465.898V72.408C465.898 71.2773 465.653 70.392 465.162 69.752C464.693 69.112 463.935 68.792 462.89 68.792C461.93 68.792 461.194 69.1227 460.682 69.784C460.191 70.424 459.946 71.2773 459.946 72.344ZM470.79 74.968H474.694C476.721 74.968 478.609 74.68 480.358 74.104C482.107 73.5067 483.995 72.632 486.022 71.48C481.435 69.7733 478.747 68.92 477.958 68.92C477.446 68.92 477.019 69.0587 476.678 69.336C476.358 69.6133 476.07 70.104 475.814 70.808L472.614 69.816C473.126 68.1947 473.841 66.9787 474.758 66.168C475.697 65.3573 476.763 64.952 477.958 64.952C478.811 64.952 480.155 65.2933 481.99 65.976C483.825 66.6373 486.299 67.6187 489.414 68.92L490.054 73.272C487.793 74.6587 485.99 75.7147 484.646 76.44C483.302 77.1653 481.787 77.7733 480.102 78.264C478.438 78.7547 476.635 79 474.694 79H470.79V74.968ZM479.014 82.712H482.918V86.552H479.014V82.712ZM497.497 83.192C498.883 83.192 499.939 83.0533 500.665 82.776C501.39 82.4987 501.891 82.0613 502.169 81.464C502.446 80.888 502.595 80.0667 502.617 79H499.641C497.678 79 496.121 78.424 494.969 77.272C493.817 76.12 493.241 74.52 493.241 72.472C493.241 71.0213 493.507 69.7307 494.041 68.6C494.595 67.448 495.353 66.552 496.313 65.912C497.273 65.272 498.371 64.952 499.609 64.952C500.91 64.952 502.051 65.272 503.033 65.912C504.035 66.5307 504.803 67.416 505.337 68.568C505.891 69.6987 506.169 71 506.169 72.472V74.968H507.961L508.185 77.016L507.961 79H506.169C506.126 81.496 505.401 83.4907 503.993 84.984C502.606 86.4773 500.441 87.224 497.497 87.224H493.785V83.192H497.497ZM496.665 72.344C496.665 73.304 496.899 74.008 497.369 74.456C497.859 74.8827 498.617 75.096 499.641 75.096H502.617V72.408C502.617 71.2773 502.371 70.392 501.881 69.752C501.411 69.112 500.654 68.792 499.609 68.792C498.649 68.792 497.913 69.1227 497.401 69.784C496.91 70.424 496.665 71.2773 496.665 72.344ZM507.637 74.968H508.501C508.928 74.968 509.269 74.8613 509.525 74.648C509.781 74.4347 509.973 74.0933 510.101 73.624L510.965 70.36C511.456 68.5893 512.234 67.2133 513.301 66.232C514.368 65.2507 515.648 64.76 517.141 64.76C518.336 64.76 519.392 65.0907 520.309 65.752C521.248 66.4133 521.973 67.32 522.485 68.472C523.018 69.624 523.285 70.9147 523.285 72.344C523.285 74.0293 523.018 75.416 522.485 76.504C521.952 77.592 521.28 78.3813 520.469 78.872C519.658 79.3627 518.816 79.608 517.941 79.608C517.173 79.608 516.362 79.4587 515.509 79.16C514.677 78.8613 513.482 78.328 511.925 77.56C511.456 78.008 510.922 78.36 510.325 78.616C509.728 78.872 509.13 79 508.533 79H507.637V74.968ZM513.653 74.104C514.89 74.7227 515.797 75.1387 516.373 75.352C516.97 75.5653 517.525 75.672 518.037 75.672C518.634 75.672 519.093 75.4267 519.413 74.936C519.754 74.424 519.925 73.56 519.925 72.344C519.925 71.1707 519.68 70.2747 519.189 69.656C518.698 69.016 518.016 68.696 517.141 68.696C516.501 68.696 515.925 68.9413 515.413 69.432C514.922 69.9013 514.56 70.584 514.325 71.48L513.653 74.104ZM542.804 68.568V77.592C542.804 80.6 542.036 82.9253 540.5 84.568C538.964 86.232 536.745 87.064 533.844 87.064H531.828V83.032H533.844C535.209 83.032 536.276 82.8613 537.044 82.52C537.833 82.1787 538.399 81.6133 538.74 80.824C539.103 80.056 539.284 78.9787 539.284 77.592V68.568H542.804ZM539.06 60.664H542.964V64.504H539.06V60.664ZM546.733 57.848H550.253L550.285 79H546.765L546.733 57.848ZM577.573 87.096H569.477C567.728 87.096 566.192 86.7227 564.869 85.976C563.547 85.2293 562.523 84.2053 561.797 82.904C561.072 81.6027 560.709 80.152 560.709 78.552C560.709 76.8667 561.157 75.3413 562.053 73.976C562.971 72.5893 564.155 71.5547 565.605 70.872C564.432 69.656 563.845 68.2693 563.845 66.712C563.845 65.56 564.123 64.4933 564.677 63.512C565.232 62.5093 565.979 61.72 566.917 61.144C567.877 60.568 568.923 60.28 570.053 60.28C571.056 60.28 571.888 60.4187 572.549 60.696C573.232 60.9733 574.128 61.464 575.237 62.168L575.813 62.552L574.149 65.496C573.061 64.8773 572.272 64.472 571.781 64.28C571.291 64.0667 570.747 63.96 570.149 63.96C569.36 63.96 568.677 64.216 568.101 64.728C567.525 65.24 567.237 65.88 567.237 66.648C567.237 67.5867 567.621 68.3653 568.389 68.984C569.179 69.6027 570.395 69.976 572.037 70.104L576.197 70.136L576.165 74.168L569.349 74.104C567.92 74.0827 566.725 74.488 565.765 75.32C564.805 76.152 564.325 77.2293 564.325 78.552C564.325 79.896 564.773 80.984 565.669 81.816C566.565 82.648 567.792 83.064 569.349 83.064H577.573V87.096ZM597.572 79C596.911 79 596.239 78.8613 595.556 78.584C594.895 78.3067 594.308 77.8907 593.796 77.336C593.241 77.8907 592.612 78.3067 591.908 78.584C591.204 78.8613 590.511 79 589.828 79H580.772V74.968H589.572C590.361 74.968 590.948 74.7867 591.332 74.424C591.737 74.0613 591.94 73.4747 591.94 72.664V57.848H595.46V72.952C595.46 74.296 596.164 74.968 597.572 74.968H598.468L598.692 76.92L598.468 79H597.572ZM584.964 58.168L585.86 72.568L582.34 72.856L581.412 58.456L584.964 58.168ZM598.137 74.968H601.465L602.329 73.656V57.848H605.849L605.881 68.44C606.82 67.224 607.769 66.3387 608.729 65.784C609.689 65.2293 610.777 64.952 611.993 64.952C613.316 64.952 614.446 65.2933 615.385 65.976C616.345 66.6373 617.06 67.5227 617.529 68.632C618.02 69.72 618.265 70.904 618.265 72.184C618.265 73.4853 617.966 74.6587 617.369 75.704C616.793 76.728 615.972 77.5387 614.905 78.136C613.838 78.712 612.622 79 611.257 79H598.137V74.968ZM611.257 74.968C612.388 74.968 613.252 74.7333 613.849 74.264C614.468 73.7947 614.777 73.0907 614.777 72.152C614.777 71.1707 614.542 70.4027 614.073 69.848C613.625 69.272 612.91 68.984 611.929 68.984C611.118 68.984 610.436 69.1867 609.881 69.592C609.326 69.976 608.676 70.6907 607.929 71.736L605.529 74.968H611.257ZM622.421 57.848H625.941L625.973 79H622.453L622.421 57.848ZM641.614 70.776C640.313 73.656 639.662 76.024 639.662 77.88C639.662 79.928 640.185 81.592 641.23 82.872C642.275 84.1733 643.779 84.824 645.742 84.824H649.23C650.595 84.824 651.673 84.6747 652.462 84.376C653.273 84.0773 653.881 83.608 654.286 82.968C654.691 82.3493 654.958 81.496 655.086 80.408C655.107 80.3013 655.118 80.152 655.118 79.96C655.118 79.7467 655.065 79.5973 654.958 79.512C654.851 79.4267 654.638 79.3413 654.318 79.256L647.278 77.368C646.979 76.344 646.83 75.4053 646.83 74.552C646.83 73.4853 647.011 72.504 647.374 71.608C647.758 70.6907 648.259 69.88 648.878 69.176C649.625 68.344 650.51 67.704 651.534 67.256C652.579 66.7867 653.635 66.5413 654.702 66.52C655.79 66.52 656.857 66.6373 657.902 66.872L657.422 69.08C656.633 68.8667 655.747 68.76 654.766 68.76C653.891 68.7813 653.07 68.952 652.302 69.272C651.555 69.592 650.905 70.0507 650.35 70.648C649.859 71.2027 649.475 71.7787 649.198 72.376C648.942 72.9733 648.814 73.6453 648.814 74.392C648.814 74.7547 648.846 75.128 648.91 75.512C649.87 75.7467 650.915 76.024 652.046 76.344C653.177 76.6427 654.126 76.9093 654.894 77.144C655.747 77.3787 656.345 77.7733 656.686 78.328C657.027 78.8613 657.155 79.608 657.07 80.568C656.643 84.8987 654.03 87.064 649.23 87.064H645.742C644.078 87.064 642.638 86.6373 641.422 85.784C640.206 84.952 639.278 83.832 638.638 82.424C637.998 81.0373 637.678 79.544 637.678 77.944C637.678 75.64 638.382 72.9413 639.79 69.848L641.614 70.776ZM662.396 58.232H664.38L664.412 79H662.428L662.396 58.232ZM673.661 69.304V74.072C673.661 75.864 674.632 76.76 676.573 76.76H676.893L677.053 77.912L676.893 79H676.573C676.04 79 675.517 78.904 675.005 78.712C674.493 78.52 674.045 78.2213 673.661 77.816V78.488C673.661 81.2827 672.957 83.4053 671.549 84.856C670.141 86.328 668.114 87.064 665.469 87.064H663.453V84.824H665.469C667.645 84.824 669.224 84.3227 670.205 83.32C671.186 82.3387 671.677 80.728 671.677 78.488V69.304H673.661ZM676.574 76.76H680.03C681.097 76.76 681.865 76.5253 682.334 76.056C682.825 75.5653 683.07 74.936 683.07 74.168C683.07 73.5707 682.964 72.6853 682.75 71.512C682.558 70.3173 682.334 69.1973 682.078 68.152L683.998 67.64C684.254 68.7493 684.489 69.9333 684.702 71.192C684.937 72.4507 685.054 73.4427 685.054 74.168C685.054 74.9787 684.873 75.7573 684.51 76.504C684.148 77.2293 683.582 77.8267 682.814 78.296C682.068 78.7653 681.14 79 680.03 79H676.574V76.76ZM679.102 83.576H681.95V86.424H679.102V83.576ZM702.928 79C700.987 79 699.611 78.488 698.8 77.464C697.989 76.44 697.584 74.9147 697.584 72.888L697.552 58.232H699.536L699.568 72.888C699.568 73.9547 699.653 74.7547 699.824 75.288C700.016 75.8213 700.347 76.2053 700.816 76.44C701.285 76.6533 701.989 76.76 702.928 76.76H703.344L703.504 77.912L703.344 79H702.928ZM702.916 76.76H704.228C705.7 76.76 707.055 76.664 708.292 76.472C706.372 75.2773 705.412 73.7627 705.412 71.928C705.412 70.84 705.668 69.848 706.18 68.952C706.692 68.0347 707.375 67.32 708.228 66.808C709.103 66.2747 710.063 66.008 711.108 66.008C712.111 66.008 713.039 66.2747 713.892 66.808C714.745 67.3413 715.428 68.0667 715.94 68.984C716.452 69.88 716.708 70.8613 716.708 71.928C716.708 73.7627 715.737 75.2773 713.796 76.472C715.055 76.664 716.42 76.76 717.892 76.76H719.076L719.236 77.88L719.076 79H717.892C716.911 79 715.801 78.904 714.564 78.712C713.348 78.4987 712.185 78.2 711.076 77.816C709.924 78.2 708.729 78.4987 707.492 78.712C706.276 78.904 705.188 79 704.228 79H702.916V76.76ZM707.396 71.928C707.396 73.72 708.601 75.032 711.012 75.864C713.487 75.032 714.724 73.72 714.724 71.928C714.724 70.8613 714.372 69.9867 713.668 69.304C712.985 68.6 712.132 68.248 711.108 68.248C710.041 68.248 709.156 68.6 708.452 69.304C707.748 69.9867 707.396 70.8613 707.396 71.928ZM709.636 60.6H712.484V63.448H709.636V60.6ZM718.762 76.76H722.506L723.786 74.808L723.754 58.232L725.738 58.2L725.77 71.768L726.378 70.84C727.402 69.2613 728.405 68.1307 729.386 67.448C730.389 66.744 731.573 66.392 732.938 66.392C734.069 66.392 735.05 66.6907 735.882 67.288C736.735 67.8853 737.375 68.6853 737.802 69.688C738.25 70.6693 738.474 71.736 738.474 72.888C738.474 73.9333 738.271 74.8933 737.866 75.768C738.421 76.4293 739.37 76.76 740.714 76.76H741.45L741.642 77.88L741.45 79H740.714C739.989 79 739.242 78.8507 738.474 78.552C737.706 78.2533 737.109 77.8587 736.682 77.368C736.106 77.9013 735.434 78.3067 734.666 78.584C733.919 78.8613 733.119 79 732.266 79H718.762V76.76ZM732.266 76.76C733.589 76.76 734.623 76.44 735.37 75.8C736.117 75.1387 736.49 74.168 736.49 72.888C736.49 71.5867 736.191 70.552 735.594 69.784C734.997 69.016 734.111 68.632 732.938 68.632C731.935 68.632 731.093 68.8773 730.41 69.368C729.749 69.8587 728.949 70.776 728.01 72.12L724.778 76.76H732.266ZM747.312 73.816C747.312 75.032 747.035 76.0347 746.48 76.824C745.947 77.592 745.296 78.1467 744.528 78.488C743.781 78.8293 743.077 79 742.416 79H741.168V76.76H742.288C744.315 76.76 745.328 75.7787 745.328 73.816V58.232H747.312V73.816ZM34.3029 127.8C35.6255 129.784 37.2469 132.291 39.1669 135.32C39.8282 136.344 40.1589 137.432 40.1589 138.584C40.1589 139.459 39.9455 140.205 39.5189 140.824C38.5589 142.275 36.9269 143 34.6229 143H32.8949C31.7215 143 30.6869 142.84 29.7909 142.52C28.9162 142.179 28.2015 141.795 27.6469 141.368L28.7029 139.48C29.1509 139.821 29.6949 140.12 30.3349 140.376C30.9749 140.632 31.8282 140.76 32.8949 140.76H34.6229C35.4122 140.76 36.0735 140.675 36.6069 140.504C37.1615 140.312 37.5989 139.992 37.9189 139.544C38.1109 139.245 38.2069 138.904 38.2069 138.52C38.2069 137.944 37.9722 137.283 37.5029 136.536L32.6389 129.016L34.3029 127.8ZM46.9496 148.856C48.4643 148.856 49.6483 148.653 50.5016 148.248C51.3763 147.864 51.9843 147.288 52.3256 146.52C52.6883 145.752 52.8696 144.749 52.8696 143.512V143H49.0936C47.387 143 46.0003 142.509 44.9336 141.528C43.8883 140.525 43.3656 139.096 43.3656 137.24C43.3656 135.96 43.6003 134.808 44.0696 133.784C44.5603 132.739 45.243 131.917 46.1176 131.32C46.9923 130.701 47.9736 130.392 49.0616 130.392C50.811 130.392 52.2083 131.032 53.2536 132.312C54.3203 133.571 54.8536 135.213 54.8536 137.24V140.76H56.6456L56.8056 141.912L56.6456 143H54.8536V143.512C54.8536 145.859 54.2243 147.704 52.9656 149.048C51.7283 150.413 49.723 151.096 46.9496 151.096H43.7816V148.856H46.9496ZM45.3496 137.24C45.3496 138.499 45.659 139.405 46.2776 139.96C46.8963 140.493 47.835 140.76 49.0936 140.76H52.8696V137.24C52.8696 135.789 52.539 134.659 51.8776 133.848C51.2376 133.016 50.299 132.6 49.0616 132.6C47.9096 132.6 47.003 133.027 46.3416 133.88C45.6803 134.712 45.3496 135.832 45.3496 137.24ZM56.1964 140.76H60.0364C61.551 140.76 62.9804 140.557 64.3244 140.152C65.6684 139.725 66.895 139.203 68.0044 138.584C69.1137 137.944 70.5537 137.059 72.3244 135.928C69.6577 134.819 67.5884 133.997 66.1164 133.464C64.6444 132.909 63.6524 132.632 63.1404 132.632C62.479 132.632 61.9457 132.803 61.5404 133.144C61.135 133.485 60.7724 134.125 60.4524 135.064L58.5324 134.456C59.407 131.747 60.943 130.392 63.1404 130.392C63.823 130.392 64.9217 130.68 66.4364 131.256C67.9724 131.811 70.2337 132.707 73.2204 133.944C73.4764 134.051 73.711 134.147 73.9244 134.232C74.1377 134.317 74.3404 134.403 74.5324 134.488L74.9804 136.792L73.6684 137.656C71.791 138.893 70.2337 139.864 68.9964 140.568C67.759 141.251 66.383 141.827 64.8684 142.296C63.375 142.765 61.7644 143 60.0364 143H56.1964V140.76ZM62.0524 124.408H64.9004V127.256H62.0524V124.408ZM91.5541 143C90.4448 143 89.4635 142.744 88.6101 142.232C87.7568 141.699 87.1168 141.005 86.6901 140.152C86.2635 139.277 86.1035 138.328 86.2101 137.304C86.2741 136.493 86.6155 134.776 87.2341 132.152L89.1221 132.632C89.0795 132.824 88.9088 133.56 88.6101 134.84C88.3328 136.099 88.1728 136.984 88.1301 137.496C88.1088 137.603 88.0981 137.752 88.0981 137.944C88.0981 138.797 88.3968 139.48 88.9941 139.992C89.6128 140.504 90.4661 140.76 91.5541 140.76H105.314C106.359 140.76 107.149 140.461 107.682 139.864C108.215 139.245 108.482 138.509 108.482 137.656C108.482 136.653 108.151 134.691 107.49 131.768L109.442 131.256C110.125 134.264 110.466 136.397 110.466 137.656C110.466 138.488 110.263 139.32 109.858 140.152C109.474 140.963 108.887 141.645 108.098 142.2C107.33 142.733 106.402 143 105.314 143H91.5541ZM94.4661 130.296H97.3141V133.144H94.4661V130.296ZM99.7781 130.296H102.626V133.144H99.7781V130.296ZM120.334 143C118.393 143 117.017 142.488 116.206 141.464C115.395 140.44 114.99 138.915 114.99 136.888L114.958 122.232H116.942L116.974 136.888C116.974 137.955 117.059 138.755 117.23 139.288C117.422 139.821 117.753 140.205 118.222 140.44C118.691 140.653 119.395 140.76 120.334 140.76H120.75L120.91 141.912L120.75 143H120.334ZM135.682 143H120.418V140.76H126.37C125.666 140.227 125.133 139.587 124.77 138.84C124.407 138.093 124.226 137.293 124.226 136.44C124.226 135.437 124.471 134.52 124.962 133.688C125.453 132.835 126.114 132.163 126.946 131.672C127.778 131.16 128.685 130.904 129.666 130.904C130.37 130.904 130.989 130.989 131.522 131.16C132.055 131.331 132.525 131.544 132.93 131.8C133.357 132.035 134.05 132.472 135.01 133.112L134.018 134.712C132.887 134.051 132.045 133.613 131.49 133.4C130.957 133.165 130.349 133.048 129.666 133.048C128.706 133.048 127.885 133.379 127.202 134.04C126.541 134.68 126.21 135.48 126.21 136.44C126.21 137.699 126.743 138.733 127.81 139.544C128.898 140.355 130.53 140.76 132.706 140.76H135.682V143ZM155.665 143C154.982 143 154.289 142.84 153.585 142.52C152.881 142.179 152.294 141.667 151.825 140.984C151.334 141.667 150.716 142.179 149.969 142.52C149.244 142.84 148.55 143 147.889 143H138.897V140.76H147.729C149.777 140.76 150.801 139.779 150.801 137.816V122.232H152.753V137.816C152.753 138.84 153.02 139.587 153.553 140.056C154.108 140.525 154.812 140.76 155.665 140.76H156.625L156.753 141.88L156.625 143H155.665ZM141.969 122.616L142.897 138.136L140.913 138.264L139.985 122.776L141.969 122.616ZM156.293 140.76H160.037L161.317 138.808L161.285 122.232L163.269 122.2L163.301 135.768L163.909 134.84C164.933 133.261 165.936 132.131 166.917 131.448C167.92 130.744 169.104 130.392 170.469 130.392C171.6 130.392 172.581 130.691 173.413 131.288C174.266 131.885 174.906 132.685 175.333 133.688C175.781 134.669 176.005 135.736 176.005 136.888C176.005 138.147 175.728 139.235 175.173 140.152C174.618 141.069 173.872 141.773 172.933 142.264C171.994 142.755 170.949 143 169.797 143H156.293V140.76ZM169.797 140.76C171.12 140.76 172.154 140.44 172.901 139.8C173.648 139.139 174.021 138.168 174.021 136.888C174.021 135.587 173.722 134.552 173.125 133.784C172.528 133.016 171.642 132.632 170.469 132.632C169.466 132.632 168.624 132.877 167.941 133.368C167.28 133.859 166.48 134.776 165.541 136.12L162.309 140.76H169.797ZM180.489 122.232H182.473L182.505 143H180.521L180.489 122.232ZM199.55 135C198.398 137.411 197.822 139.597 197.822 141.56C197.822 143.309 198.238 144.653 199.07 145.592C199.924 146.552 201.289 147.032 203.166 147.032H206.11C207.497 147.032 208.553 146.893 209.278 146.616C210.004 146.36 210.505 145.912 210.782 145.272C211.081 144.653 211.23 143.768 211.23 142.616V132.568H214.782V142.616C214.782 145.24 214.078 147.299 212.67 148.792C211.284 150.307 209.097 151.064 206.11 151.064H203.166C201.289 151.064 199.689 150.627 198.366 149.752C197.044 148.899 196.041 147.747 195.358 146.296C194.676 144.867 194.334 143.288 194.334 141.56C194.334 140.216 194.548 138.829 194.974 137.4C195.401 135.949 195.934 134.616 196.574 133.4L199.55 135ZM203.422 130.584H207.326V134.424H203.422V130.584ZM224.717 143C220.579 143 218.509 140.653 218.509 135.96L218.477 121.848H221.997L222.029 135.96C222.029 136.877 222.083 137.539 222.189 137.944C222.317 138.328 222.563 138.595 222.925 138.744C223.288 138.893 223.885 138.968 224.717 138.968H225.645L225.805 141.048L225.645 143H224.717ZM225.324 138.968H229.1C230.999 138.968 231.948 138.339 231.948 137.08C231.948 136.141 231.65 134.253 231.052 131.416L234.412 130.552C235.138 133.688 235.5 135.896 235.5 137.176C235.5 138.2 235.266 139.16 234.796 140.056C234.348 140.931 233.655 141.645 232.716 142.2C231.799 142.733 230.668 143 229.324 143H225.324V138.968ZM223.692 147.256H227.308V150.84H223.692V147.256ZM229.612 147.256H233.228V150.84H229.612V147.256ZM246.429 132.568V137.176C246.429 137.837 246.6 138.307 246.941 138.584C247.282 138.84 247.826 138.968 248.573 138.968H249.085L249.277 141.016L249.085 143H248.573C247.741 143 247.016 142.787 246.397 142.36C246.269 145.133 245.437 147.277 243.901 148.792C242.365 150.307 240.221 151.064 237.469 151.064H235.453V147.032H237.469C238.834 147.032 239.901 146.861 240.669 146.52C241.458 146.179 242.024 145.613 242.365 144.824C242.728 144.056 242.909 142.979 242.909 141.592V132.568H246.429ZM258.554 132.568V137.176C258.554 137.837 258.725 138.307 259.066 138.584C259.407 138.84 259.941 138.968 260.666 138.968H262.362L262.554 141.08L262.362 143H260.666C260.005 143 259.311 142.861 258.586 142.584C257.861 142.307 257.221 141.891 256.666 141.336C256.111 141.869 255.45 142.285 254.682 142.584C253.914 142.861 253.135 143 252.346 143H248.762V138.968H252.346C253.285 138.968 253.957 138.819 254.362 138.52C254.789 138.2 255.002 137.677 255.002 136.952V132.568H258.554ZM249.85 125.24H253.466V128.856H249.85V125.24ZM255.77 125.24H259.386V128.856H255.77V125.24ZM276.315 141.08C275.867 141.677 275.291 142.147 274.587 142.488C273.883 142.829 273.115 143 272.283 143C271.515 143 270.736 142.829 269.947 142.488C269.179 142.125 268.614 141.656 268.251 141.08C267.824 141.677 267.248 142.147 266.523 142.488C265.819 142.829 265.019 143 264.123 143H262.043V138.968H264.251C265.104 138.968 265.702 138.797 266.043 138.456C266.406 138.115 266.587 137.539 266.587 136.728V132.568H270.139V136.696C270.139 137.507 270.32 138.093 270.683 138.456C271.046 138.797 271.6 138.968 272.347 138.968C273.094 138.968 273.648 138.797 274.011 138.456C274.374 138.093 274.555 137.507 274.555 136.696V132.568H278.107L278.075 136.696C278.075 138.211 278.832 138.968 280.347 138.968C281.072 138.968 281.606 138.797 281.947 138.456C282.31 138.093 282.491 137.507 282.491 136.696V132.568H286.043V136.728C286.043 137.539 286.224 138.115 286.587 138.456C286.95 138.797 287.547 138.968 288.379 138.968H290.587L290.779 140.984L290.587 143H288.507C287.611 143 286.8 142.829 286.075 142.488C285.371 142.147 284.806 141.677 284.379 141.08C284.016 141.656 283.44 142.125 282.651 142.488C281.883 142.829 281.126 143 280.379 143C279.547 143 278.779 142.829 278.075 142.488C277.392 142.147 276.806 141.677 276.315 141.08ZM271.579 125.08H275.227V128.696H271.579V125.08ZM274.683 120.632H278.139V124.088H274.683V120.632ZM277.595 125.08H281.211V128.696H277.595V125.08ZM290.262 138.968H291.126C291.553 138.968 291.894 138.861 292.15 138.648C292.406 138.435 292.598 138.093 292.726 137.624L293.59 134.36C294.081 132.589 294.859 131.213 295.926 130.232C296.993 129.251 298.273 128.76 299.766 128.76C300.961 128.76 302.017 129.091 302.934 129.752C303.873 130.413 304.598 131.32 305.11 132.472C305.643 133.624 305.91 134.915 305.91 136.344C305.91 138.029 305.643 139.416 305.11 140.504C304.577 141.592 303.905 142.381 303.094 142.872C302.283 143.363 301.441 143.608 300.566 143.608C299.798 143.608 298.987 143.459 298.134 143.16C297.302 142.861 296.107 142.328 294.55 141.56C294.081 142.008 293.547 142.36 292.95 142.616C292.353 142.872 291.755 143 291.158 143H290.262V138.968ZM296.278 138.104C297.515 138.723 298.422 139.139 298.998 139.352C299.595 139.565 300.15 139.672 300.662 139.672C301.259 139.672 301.718 139.427 302.038 138.936C302.379 138.424 302.55 137.56 302.55 136.344C302.55 135.171 302.305 134.275 301.814 133.656C301.323 133.016 300.641 132.696 299.766 132.696C299.126 132.696 298.55 132.941 298.038 133.432C297.547 133.901 297.185 134.584 296.95 135.48L296.278 138.104ZM324.021 127.544C325.493 129.144 326.592 130.392 327.317 131.288C328.064 132.184 328.65 133.091 329.077 134.008C329.525 134.904 329.749 135.843 329.749 136.824C329.749 137.997 329.44 139.085 328.821 140.088C328.202 141.069 327.37 141.848 326.325 142.424C325.28 142.979 324.138 143.256 322.901 143.256C321.664 143.256 320.522 142.979 319.477 142.424C318.432 141.848 317.6 141.069 316.981 140.088C316.362 139.085 316.053 137.997 316.053 136.824C316.053 135.821 316.245 134.872 316.629 133.976C317.013 133.08 317.504 132.259 318.101 131.512C318.698 130.744 319.477 129.859 320.437 128.856L319.445 127.768L321.973 125.272L324.021 127.544ZM319.605 136.568C319.605 137.336 319.893 137.987 320.469 138.52C321.045 139.053 321.856 139.32 322.901 139.32C323.946 139.32 324.757 139.053 325.333 138.52C325.909 137.987 326.197 137.336 326.197 136.568C326.197 136.013 325.952 135.384 325.461 134.68C324.992 133.955 324.128 132.899 322.869 131.512C321.653 132.835 320.8 133.837 320.309 134.52C319.84 135.203 319.605 135.885 319.605 136.568ZM339.967 143C335.829 143 333.759 140.653 333.759 135.96L333.727 121.848H337.247L337.279 135.96C337.279 136.877 337.333 137.539 337.439 137.944C337.567 138.328 337.813 138.595 338.175 138.744C338.538 138.893 339.135 138.968 339.967 138.968H340.895L341.055 141.048L340.895 143H339.967ZM355.62 124.664L346.756 128.6L350.436 133.208C350.522 133.293 350.564 133.336 350.564 133.336C351.93 135.064 352.922 136.28 353.54 136.984C354.159 137.688 354.746 138.2 355.3 138.52C355.876 138.819 356.559 138.968 357.348 138.968H357.892V143H357.348C356.175 143 355.162 142.776 354.308 142.328C353.476 141.88 352.559 141.112 351.556 140.024C351.13 140.941 350.479 141.667 349.604 142.2C348.751 142.733 347.706 143 346.468 143H340.324V138.968H346.532C347.194 138.968 347.706 138.84 348.068 138.584C348.431 138.328 348.612 137.997 348.612 137.592C348.612 137.059 348.356 136.504 347.844 135.928L342.916 130.104L343.812 125.56L354.18 120.984L355.62 124.664ZM344.324 121.88L352.42 118.328L352.996 119.736L344.132 123.64L344.324 121.88ZM357.574 138.968H359.782C360.614 138.968 361.212 138.797 361.574 138.456C361.937 138.093 362.118 137.517 362.118 136.728V132.568H365.67V136.92C365.67 138.243 366.396 138.925 367.846 138.968C369.425 138.925 370.214 138.168 370.214 136.696L370.182 132.568H373.734V136.92C373.734 137.624 373.905 138.136 374.246 138.456C374.609 138.776 375.142 138.947 375.846 138.968C376.593 138.947 377.169 138.755 377.574 138.392C377.98 138.008 378.15 137.496 378.086 136.856C378.022 136.173 377.884 135.288 377.67 134.2C377.478 133.112 377.35 132.397 377.286 132.056C377.244 131.928 377.201 131.715 377.158 131.416L380.518 130.552C380.774 131.555 381.009 132.739 381.222 134.104C381.457 135.448 381.574 136.504 381.574 137.272C381.574 138.253 381.361 139.181 380.934 140.056C380.529 140.931 379.889 141.645 379.014 142.2C378.161 142.733 377.105 143 375.846 143C375.078 143 374.342 142.84 373.638 142.52C372.956 142.179 372.369 141.699 371.878 141.08C371.388 141.677 370.79 142.147 370.086 142.488C369.404 142.829 368.636 143 367.782 143C367.057 143 366.31 142.819 365.542 142.456C364.774 142.072 364.188 141.613 363.782 141.08C363.356 141.677 362.78 142.147 362.054 142.488C361.35 142.829 360.55 143 359.654 143H357.574V138.968ZM367.238 125.016H370.854V128.632H367.238V125.016ZM370.342 120.568H373.798V123.992H370.342V120.568ZM373.254 125.016H376.87V128.632H373.254V125.016ZM391.78 143C387.641 143 385.572 140.653 385.572 135.96L385.54 121.848H389.06L389.092 135.96C389.092 136.877 389.145 137.539 389.252 137.944C389.38 138.328 389.625 138.595 389.988 138.744C390.351 138.893 390.948 138.968 391.78 138.968H392.708L392.868 141.048L392.708 143H391.78ZM392.387 138.968H395.587C397.251 138.968 398.083 138.349 398.083 137.112C398.083 136.557 397.987 135.725 397.795 134.616C397.624 133.507 397.422 132.44 397.187 131.416L400.579 130.552C400.835 131.683 401.07 132.888 401.283 134.168C401.518 135.427 401.635 136.429 401.635 137.176C401.635 138.179 401.411 139.128 400.963 140.024C400.536 140.92 399.875 141.645 398.979 142.2C398.104 142.733 397.048 143 395.811 143H392.387V138.968ZM392.227 147.224H396.131V151.064H392.227V147.224ZM417.765 143C416.485 143 415.365 142.723 414.405 142.168C413.466 141.613 412.741 140.877 412.229 139.96C411.717 139.021 411.461 137.997 411.461 136.888C411.461 136.483 411.493 136.088 411.557 135.704C411.621 135.299 411.749 134.605 411.941 133.624C412.154 132.621 412.346 131.779 412.517 131.096L415.781 131.928C415.738 132.163 415.685 132.387 415.621 132.6C415.578 132.792 415.536 132.984 415.493 133.176C415.45 133.411 415.333 133.976 415.141 134.872C414.949 135.747 414.853 136.333 414.853 136.632C414.853 137.336 415.098 137.901 415.589 138.328C416.101 138.755 416.826 138.968 417.765 138.968H431.525C432.442 138.968 433.125 138.755 433.573 138.328C434.042 137.88 434.277 137.315 434.277 136.632C434.277 136.099 434.17 135.277 433.957 134.168C433.765 133.059 433.573 132.024 433.381 131.064L436.741 130.2C437.466 133.272 437.829 135.469 437.829 136.792C437.829 137.816 437.594 138.808 437.125 139.768C436.656 140.707 435.962 141.485 435.045 142.104C434.128 142.701 433.029 143 431.749 143H417.765ZM419.941 128.152H423.557V131.768H419.941V128.152ZM425.861 128.152H429.477V131.768H425.861V128.152ZM442.046 121.848H445.566L445.598 143H442.078L442.046 121.848ZM456.117 132.568V141.592C456.117 144.6 455.349 146.925 453.813 148.568C452.277 150.232 450.058 151.064 447.157 151.064H445.141V147.032H447.157C448.522 147.032 449.589 146.861 450.357 146.52C451.146 146.179 451.711 145.613 452.053 144.824C452.415 144.056 452.597 142.979 452.597 141.592V132.568H456.117ZM452.373 124.664H456.277V128.504H452.373V124.664ZM466.03 143C461.891 143 459.822 140.653 459.822 135.96L459.79 121.848H463.31L463.342 135.96C463.342 136.877 463.395 137.539 463.502 137.944C463.63 138.328 463.875 138.595 464.238 138.744C464.601 138.893 465.198 138.968 466.03 138.968H466.958L467.118 141.048L466.958 143H466.03ZM476.429 132.568V137.176C476.429 137.837 476.6 138.307 476.941 138.584C477.282 138.84 477.816 138.968 478.541 138.968H480.237L480.429 141.08L480.237 143H478.541C477.88 143 477.186 142.861 476.461 142.584C475.736 142.307 475.096 141.891 474.541 141.336C473.986 141.869 473.325 142.285 472.557 142.584C471.789 142.861 471.01 143 470.221 143H466.637V138.968H470.221C471.16 138.968 471.832 138.819 472.237 138.52C472.664 138.2 472.877 137.677 472.877 136.952V132.568H476.429ZM464.845 147.256H468.429V150.84H464.845V147.256ZM470.733 147.256H474.349V150.84H470.733V147.256ZM489.71 132.568V137.176C489.71 137.837 489.881 138.307 490.222 138.584C490.563 138.84 491.097 138.968 491.822 138.968H493.518L493.71 141.08L493.518 143H491.822C491.161 143 490.467 142.861 489.742 142.584C489.017 142.307 488.377 141.891 487.822 141.336C487.267 141.869 486.606 142.285 485.838 142.584C485.07 142.861 484.291 143 483.502 143H479.918V138.968H483.502C484.441 138.968 485.113 138.819 485.518 138.52C485.945 138.2 486.158 137.677 486.158 136.952V132.568H489.71ZM481.006 125.24H484.622V128.856H481.006V125.24ZM486.926 125.24H490.542V128.856H486.926V125.24ZM493.199 138.968H494.063C494.49 138.968 494.831 138.861 495.087 138.648C495.343 138.435 495.535 138.093 495.663 137.624L496.527 134.36C497.018 132.589 497.797 131.213 498.863 130.232C499.93 129.251 501.21 128.76 502.703 128.76C503.898 128.76 504.954 129.091 505.871 129.752C506.81 130.413 507.535 131.32 508.047 132.472C508.581 133.624 508.847 134.915 508.847 136.344C508.847 138.029 508.581 139.416 508.047 140.504C507.514 141.592 506.842 142.381 506.031 142.872C505.221 143.363 504.378 143.608 503.503 143.608C502.735 143.608 501.925 143.459 501.071 143.16C500.239 142.861 499.045 142.328 497.487 141.56C497.018 142.008 496.485 142.36 495.887 142.616C495.29 142.872 494.693 143 494.095 143H493.199V138.968ZM499.215 138.104C500.453 138.723 501.359 139.139 501.935 139.352C502.533 139.565 503.087 139.672 503.599 139.672C504.197 139.672 504.655 139.427 504.975 138.936C505.317 138.424 505.487 137.56 505.487 136.344C505.487 135.171 505.242 134.275 504.751 133.656C504.261 133.016 503.578 132.696 502.703 132.696C502.063 132.696 501.487 132.941 500.975 133.432C500.485 133.901 500.122 134.584 499.887 135.48L499.215 138.104ZM513.296 121.848H516.816L516.848 143H513.328L513.296 121.848ZM537.161 133.304V142.488C537.161 145.283 536.457 147.405 535.049 148.856C533.641 150.328 531.614 151.064 528.969 151.064H526.953V148.824H528.969C531.145 148.824 532.724 148.323 533.705 147.32C534.686 146.339 535.177 144.728 535.177 142.488V133.304H537.161ZM534.665 126.04H537.513V128.888H534.665V126.04ZM541.739 122.232H543.723L543.755 143H541.771L541.739 122.232ZM559.52 134.776C558.219 137.656 557.568 140.024 557.568 141.88C557.568 143.928 558.091 145.592 559.136 146.872C560.182 148.173 561.686 148.824 563.648 148.824H567.136C568.502 148.824 569.579 148.675 570.368 148.376C571.179 148.077 571.787 147.608 572.192 146.968C572.598 146.349 572.864 145.496 572.992 144.408C573.014 144.301 573.024 144.152 573.024 143.96C573.024 143.747 572.971 143.597 572.864 143.512C572.758 143.427 572.544 143.341 572.224 143.256L565.184 141.368C564.886 140.344 564.736 139.405 564.736 138.552C564.736 137.485 564.918 136.504 565.28 135.608C565.664 134.691 566.166 133.88 566.784 133.176C567.531 132.344 568.416 131.704 569.44 131.256C570.486 130.787 571.542 130.541 572.608 130.52C573.696 130.52 574.763 130.637 575.808 130.872L575.328 133.08C574.539 132.867 573.654 132.76 572.672 132.76C571.798 132.781 570.976 132.952 570.208 133.272C569.462 133.592 568.811 134.051 568.256 134.648C567.766 135.203 567.382 135.779 567.104 136.376C566.848 136.973 566.72 137.645 566.72 138.392C566.72 138.755 566.752 139.128 566.816 139.512C567.776 139.747 568.822 140.024 569.952 140.344C571.083 140.643 572.032 140.909 572.8 141.144C573.654 141.379 574.251 141.773 574.592 142.328C574.934 142.861 575.062 143.608 574.976 144.568C574.55 148.899 571.936 151.064 567.136 151.064H563.648C561.984 151.064 560.544 150.637 559.328 149.784C558.112 148.952 557.184 147.832 556.544 146.424C555.904 145.037 555.584 143.544 555.584 141.944C555.584 139.64 556.288 136.941 557.696 133.848L559.52 134.776ZM589.39 132.088L590.734 135.032C590.734 135.032 590.734 135.043 590.734 135.064C590.755 135.064 590.766 135.064 590.766 135.064C591.683 137.155 592.494 138.627 593.198 139.48C593.923 140.333 594.777 140.76 595.758 140.76H596.27L596.43 141.944L596.27 143H595.758C594.841 143 594.019 142.765 593.294 142.296C592.569 141.827 591.886 141.144 591.246 140.248L590.958 140.728C589.913 142.243 588.227 143 585.902 143H584.27C583.118 143 582.094 142.829 581.198 142.488C580.323 142.147 579.598 141.752 579.022 141.304L580.11 139.448C581.347 140.323 582.734 140.76 584.27 140.76H585.902C587.566 140.76 588.707 140.323 589.326 139.448C589.561 139.128 589.678 138.755 589.678 138.328C589.678 137.816 589.433 137.037 588.942 135.992C586.766 131.277 585.635 128.824 585.55 128.632L587.374 127.672L589.39 132.088ZM604.173 133.304V138.072C604.173 139.864 605.144 140.76 607.085 140.76H608.109L608.269 141.912L608.109 143H607.085C606.403 143 605.688 142.829 604.941 142.488C604.195 142.147 603.576 141.624 603.085 140.92C602.616 141.603 601.987 142.125 601.197 142.488C600.408 142.829 599.555 143 598.637 143H595.949V140.76H598.637C601.005 140.76 602.189 139.779 602.189 137.816V133.304H604.173ZM598.637 126.968H601.485V129.816H598.637V126.968ZM607.793 140.76H608.689C609.222 140.76 609.67 140.621 610.033 140.344C610.417 140.067 610.673 139.683 610.801 139.192L611.825 135.512C612.273 133.912 612.966 132.664 613.905 131.768C614.844 130.851 615.974 130.392 617.297 130.392C618.364 130.392 619.302 130.701 620.113 131.32C620.924 131.939 621.553 132.771 622.001 133.816C622.449 134.861 622.673 136.003 622.673 137.24C622.673 138.733 622.46 139.971 622.033 140.952C621.606 141.912 621.062 142.605 620.401 143.032C619.74 143.48 619.025 143.704 618.257 143.704C617.468 143.704 616.657 143.544 615.825 143.224C615.014 142.904 613.713 142.285 611.921 141.368C611.516 141.88 611.025 142.285 610.449 142.584C609.894 142.861 609.308 143 608.689 143H607.793V140.76ZM612.817 139.384C614.502 140.237 615.676 140.803 616.337 141.08C616.998 141.336 617.638 141.464 618.257 141.464C619.025 141.464 619.622 141.165 620.049 140.568C620.476 139.949 620.689 138.84 620.689 137.24C620.689 135.832 620.39 134.712 619.793 133.88C619.217 133.048 618.385 132.632 617.297 132.632C616.444 132.632 615.718 132.92 615.121 133.496C614.524 134.072 614.065 134.936 613.745 136.088L612.817 139.384ZM638.922 127.288C639.178 127.565 639.455 127.885 639.754 128.248C640.074 128.589 640.426 128.963 640.81 129.368C642.111 130.776 643.092 131.896 643.754 132.728C644.436 133.539 644.98 134.36 645.386 135.192C645.791 136.003 645.994 136.835 645.994 137.688C645.994 138.712 645.716 139.651 645.162 140.504C644.607 141.357 643.86 142.029 642.922 142.52C642.004 142.989 641.012 143.224 639.946 143.224C638.858 143.224 637.844 142.989 636.906 142.52C635.988 142.029 635.252 141.357 634.698 140.504C634.143 139.651 633.866 138.712 633.866 137.688C633.866 136.749 634.068 135.853 634.474 135C634.879 134.147 635.359 133.389 635.914 132.728C636.49 132.045 637.332 131.107 638.442 129.912L637.45 128.792L638.922 127.288ZM635.85 137.688C635.85 138.648 636.223 139.437 636.97 140.056C637.738 140.675 638.73 140.984 639.946 140.984C641.162 140.984 642.143 140.675 642.89 140.056C643.636 139.437 644.01 138.648 644.01 137.688C644.01 136.92 643.711 136.12 643.114 135.288C642.516 134.435 641.439 133.165 639.882 131.48L639.434 131.96C638.132 133.347 637.204 134.435 636.65 135.224C636.116 135.992 635.85 136.813 635.85 137.688ZM654.599 133.304V138.072C654.599 139.864 655.569 140.76 657.511 140.76H657.831L657.991 141.912L657.831 143H657.511C656.977 143 656.455 142.904 655.943 142.712C655.431 142.52 654.983 142.221 654.599 141.816V142.488C654.599 145.283 653.895 147.405 652.487 148.856C651.079 150.328 649.052 151.064 646.407 151.064H644.391V148.824H646.407C648.583 148.824 650.161 148.323 651.143 147.32C652.124 146.339 652.615 144.728 652.615 142.488V133.304H654.599ZM657.512 140.76H659.272V137.304C659.272 135.064 659.784 133.304 660.808 132.024C661.853 130.723 663.293 130.072 665.128 130.072C666.152 130.072 667.112 130.339 668.008 130.872C668.904 131.384 669.608 132.12 670.12 133.08C670.653 134.019 670.92 135.075 670.92 136.248C670.92 136.632 670.888 137.037 670.824 137.464C670.525 139.363 669.555 140.76 667.912 141.656C666.269 142.552 664.317 143 662.056 143H661.256V143.512C661.256 145.325 661.779 146.648 662.824 147.48C663.869 148.312 665.597 148.76 668.008 148.824V146.296C668.008 145.208 668.232 144.237 668.68 143.384C669.149 142.552 669.757 141.912 670.504 141.464C671.251 140.995 672.04 140.76 672.872 140.76H674.792L674.92 141.88L674.792 143H672.872C672.04 143 671.347 143.288 670.792 143.864C670.259 144.44 669.992 145.251 669.992 146.296V149.112L668.296 151.096C665.416 151.096 663.187 150.445 661.608 149.144C660.051 147.864 659.272 145.987 659.272 143.512V143H657.512V140.76ZM662.056 140.76C663.976 140.76 665.533 140.472 666.728 139.896C667.944 139.299 668.648 138.381 668.84 137.144C668.904 136.781 668.936 136.44 668.936 136.12C668.936 134.925 668.573 133.997 667.848 133.336C667.144 132.653 666.237 132.312 665.128 132.312C663.805 132.312 662.824 132.717 662.184 133.528C661.565 134.317 661.256 135.576 661.256 137.304V140.76H662.056ZM674.481 140.76H677.937C679.003 140.76 679.771 140.525 680.241 140.056C680.731 139.565 680.977 138.936 680.977 138.168C680.977 137.571 680.87 136.685 680.657 135.512C680.465 134.317 680.241 133.197 679.985 132.152L681.905 131.64C682.161 132.749 682.395 133.933 682.609 135.192C682.843 136.451 682.961 137.443 682.961 138.168C682.961 138.979 682.779 139.757 682.417 140.504C682.054 141.229 681.489 141.827 680.721 142.296C679.974 142.765 679.046 143 677.937 143H674.481V140.76ZM677.009 147.576H679.857V150.424H677.009V147.576ZM697.762 148.824C699.277 148.824 700.461 148.621 701.314 148.216C702.189 147.832 702.797 147.256 703.138 146.488C703.501 145.72 703.682 144.717 703.682 143.48V142.968H699.906C698.199 142.968 696.813 142.477 695.746 141.496C694.701 140.493 694.178 139.064 694.178 137.208C694.178 135.928 694.413 134.776 694.882 133.752C695.373 132.707 696.055 131.885 696.93 131.288C697.805 130.669 698.786 130.36 699.874 130.36C701.623 130.36 703.021 131 704.066 132.28C705.133 133.539 705.666 135.181 705.666 137.208V143.48C705.666 145.848 705.037 147.704 703.778 149.048C702.541 150.392 700.535 151.064 697.762 151.064H694.594V148.824H697.762ZM696.162 137.208C696.162 138.467 696.471 139.373 697.09 139.928C697.709 140.461 698.647 140.728 699.906 140.728H703.682V137.208C703.682 135.757 703.351 134.627 702.69 133.816C702.05 133.005 701.111 132.6 699.874 132.6C698.722 132.6 697.815 133.016 697.154 133.848C696.493 134.68 696.162 135.8 696.162 137.208ZM729.474 133.944C730.242 135.139 730.626 136.408 730.626 137.752C730.626 138.861 730.359 139.789 729.826 140.536C729.186 141.432 728.407 142.072 727.49 142.456C726.594 142.819 725.548 143 724.354 143H722.626C721.367 143 720.247 142.808 719.266 142.424C718.284 142.019 717.484 141.571 716.866 141.08L718.562 137.816C718.626 137.837 718.839 137.955 719.202 138.168C719.564 138.381 720.055 138.573 720.674 138.744C721.314 138.893 721.975 138.968 722.658 138.968H724.258C725.004 138.968 725.58 138.915 725.986 138.808C726.412 138.68 726.722 138.456 726.914 138.136C727.063 137.901 727.138 137.688 727.138 137.496C727.138 137.112 726.924 136.611 726.498 135.992C725.111 133.837 723.49 131.384 721.634 128.632L724.61 126.392L729.474 133.944ZM738.09 147.192C739.477 147.192 740.533 147.053 741.258 146.776C741.984 146.499 742.485 146.061 742.762 145.464C743.04 144.888 743.189 144.067 743.21 143H740.234C738.272 143 736.714 142.424 735.562 141.272C734.41 140.12 733.834 138.52 733.834 136.472C733.834 135.021 734.101 133.731 734.634 132.6C735.189 131.448 735.946 130.552 736.906 129.912C737.866 129.272 738.965 128.952 740.202 128.952C741.504 128.952 742.645 129.272 743.626 129.912C744.629 130.531 745.397 131.416 745.93 132.568C746.485 133.699 746.762 135 746.762 136.472V138.968H748.554L748.778 141.016L748.554 143H746.762C746.72 145.496 745.994 147.491 744.586 148.984C743.2 150.477 741.034 151.224 738.09 151.224H734.378V147.192H738.09ZM737.258 136.344C737.258 137.304 737.493 138.008 737.962 138.456C738.453 138.883 739.21 139.096 740.234 139.096H743.21V136.408C743.21 135.277 742.965 134.392 742.474 133.752C742.005 133.112 741.248 132.792 740.202 132.792C739.242 132.792 738.506 133.123 737.994 133.784C737.504 134.424 737.258 135.277 737.258 136.344ZM748.103 138.968H752.007C754.033 138.968 755.921 138.68 757.671 138.104C759.42 137.507 761.308 136.632 763.335 135.48C758.748 133.773 756.06 132.92 755.271 132.92C754.759 132.92 754.332 133.059 753.991 133.336C753.671 133.613 753.383 134.104 753.127 134.808L749.927 133.816C750.439 132.195 751.153 130.979 752.071 130.168C753.009 129.357 754.076 128.952 755.271 128.952C756.124 128.952 757.468 129.293 759.303 129.976C761.137 130.637 763.612 131.619 766.727 132.92L767.367 137.272C765.105 138.659 763.303 139.715 761.959 140.44C760.615 141.165 759.1 141.773 757.415 142.264C755.751 142.755 753.948 143 752.007 143H748.103V138.968ZM753.671 122.264H757.575V126.104H753.671V122.264ZM319.057 207C318.566 207 318.15 206.829 317.809 206.488C317.467 206.147 317.297 205.741 317.297 205.272C317.297 204.781 317.467 204.365 317.809 204.024C318.171 203.683 318.587 203.512 319.057 203.512C319.526 203.512 319.931 203.683 320.273 204.024C320.614 204.365 320.785 204.781 320.785 205.272C320.785 205.741 320.614 206.147 320.273 206.488C319.953 206.829 319.547 207 319.057 207ZM335.484 196.088L336.828 199.032C336.828 199.032 336.828 199.043 336.828 199.064C336.849 199.064 336.86 199.064 336.86 199.064C337.777 201.155 338.588 202.627 339.292 203.48C340.017 204.333 340.87 204.76 341.852 204.76H342.364L342.524 205.944L342.364 207H341.852C340.934 207 340.113 206.765 339.388 206.296C338.662 205.827 337.98 205.144 337.34 204.248L337.052 204.728C336.006 206.243 334.321 207 331.996 207H330.364C329.212 207 328.188 206.829 327.292 206.488C326.417 206.147 325.692 205.752 325.116 205.304L326.204 203.448C327.441 204.323 328.828 204.76 330.364 204.76H331.996C333.66 204.76 334.801 204.323 335.42 203.448C335.654 203.128 335.772 202.755 335.772 202.328C335.772 201.816 335.526 201.037 335.036 199.992C332.86 195.277 331.729 192.824 331.644 192.632L333.468 191.672L335.484 196.088ZM350.907 197.304V202.072C350.907 203.864 351.878 204.76 353.819 204.76H355.451L355.579 205.912L355.451 207H353.819C353.158 207 352.443 206.829 351.675 206.488C350.928 206.147 350.31 205.635 349.819 204.952C349.35 205.635 348.72 206.147 347.931 206.488C347.142 206.829 346.299 207 345.403 207H342.043V204.76H345.403C347.75 204.76 348.923 203.779 348.923 201.816V197.304H350.907ZM341.083 211.608H343.931V214.456H341.083V211.608ZM346.363 211.608H349.211V214.456H346.363V211.608ZM355.137 204.76H359.457C360.694 204.76 361.569 204.525 362.081 204.056C362.614 203.565 362.881 202.936 362.881 202.168C362.881 201.571 362.774 200.685 362.561 199.512C362.369 198.317 362.145 197.197 361.889 196.152L363.809 195.64C364.065 196.749 364.3 197.933 364.513 199.192C364.748 200.451 364.865 201.443 364.865 202.168C364.865 202.979 364.673 203.757 364.289 204.504C363.905 205.229 363.308 205.827 362.497 206.296C361.686 206.765 360.673 207 359.457 207H355.137V204.76ZM354.049 211.608H356.897V214.456H354.049V211.608ZM359.329 211.608H362.177V214.456H359.329V211.608ZM374.709 207C372.768 207 371.392 206.488 370.581 205.464C369.77 204.44 369.365 202.915 369.365 200.888L369.333 186.232H371.317L371.349 200.888C371.349 201.955 371.434 202.755 371.605 203.288C371.797 203.821 372.128 204.205 372.597 204.44C373.066 204.653 373.77 204.76 374.709 204.76H375.125L375.285 205.912L375.125 207H374.709ZM374.793 204.76H375.689C376.222 204.76 376.67 204.621 377.033 204.344C377.417 204.067 377.673 203.683 377.801 203.192L378.825 199.512C379.273 197.912 379.966 196.664 380.905 195.768C381.844 194.851 382.974 194.392 384.297 194.392C385.364 194.392 386.302 194.701 387.113 195.32C387.924 195.939 388.553 196.771 389.001 197.816C389.449 198.861 389.673 200.003 389.673 201.24C389.673 202.2 389.748 202.936 389.897 203.448C390.068 203.939 390.313 204.28 390.633 204.472C390.953 204.664 391.39 204.76 391.945 204.76H392.265L392.393 205.88L392.265 207H391.945C390.537 207 389.481 206.499 388.777 205.496C388.372 206.243 387.849 206.797 387.209 207.16C386.59 207.523 385.94 207.704 385.257 207.704C384.468 207.704 383.657 207.544 382.825 207.224C382.014 206.904 380.713 206.285 378.921 205.368C378.516 205.88 378.025 206.285 377.449 206.584C376.894 206.861 376.308 207 375.689 207H374.793V204.76ZM379.817 203.384C381.502 204.237 382.676 204.803 383.337 205.08C383.998 205.336 384.638 205.464 385.257 205.464C386.025 205.464 386.622 205.165 387.049 204.568C387.476 203.949 387.689 202.84 387.689 201.24C387.689 199.832 387.39 198.712 386.793 197.88C386.217 197.048 385.385 196.632 384.297 196.632C383.444 196.632 382.718 196.92 382.121 197.496C381.524 198.072 381.065 198.936 380.745 200.088L379.817 203.384ZM391.949 204.76H395.405C396.472 204.76 397.24 204.525 397.709 204.056C398.2 203.565 398.445 202.936 398.445 202.168C398.445 201.571 398.339 200.685 398.125 199.512C397.933 198.317 397.709 197.197 397.453 196.152L399.373 195.64C399.629 196.749 399.864 197.933 400.077 199.192C400.312 200.451 400.429 201.443 400.429 202.168C400.429 202.979 400.248 203.757 399.885 204.504C399.523 205.229 398.957 205.827 398.189 206.296C397.443 206.765 396.515 207 395.405 207H391.949V204.76ZM395.629 188.888H398.477V191.736H395.629V188.888ZM418.303 191.8C419.626 193.784 421.247 196.291 423.167 199.32C423.828 200.344 424.159 201.432 424.159 202.584C424.159 203.459 423.946 204.205 423.519 204.824C422.559 206.275 420.927 207 418.623 207H416.895C415.722 207 414.687 206.84 413.791 206.52C412.916 206.179 412.202 205.795 411.647 205.368L412.703 203.48C413.151 203.821 413.695 204.12 414.335 204.376C414.975 204.632 415.828 204.76 416.895 204.76H418.623C419.412 204.76 420.074 204.675 420.607 204.504C421.162 204.312 421.599 203.992 421.919 203.544C422.111 203.245 422.207 202.904 422.207 202.52C422.207 201.944 421.972 201.283 421.503 200.536L416.639 193.016L418.303 191.8ZM433.005 197.304V206.488C433.005 209.283 432.301 211.405 430.893 212.856C429.485 214.328 427.458 215.064 424.813 215.064H422.797V212.824H424.813C426.989 212.824 428.568 212.323 429.549 211.32C430.53 210.339 431.021 208.728 431.021 206.488V197.304H433.005ZM437.583 186.232H439.567L439.599 207H437.615L437.583 186.232ZM447.012 212.824C448.527 212.824 449.711 212.621 450.564 212.216C451.439 211.832 452.047 211.256 452.388 210.488C452.751 209.72 452.932 208.717 452.932 207.48V206.968H449.156C447.449 206.968 446.063 206.477 444.996 205.496C443.951 204.493 443.428 203.064 443.428 201.208C443.428 199.928 443.663 198.776 444.132 197.752C444.623 196.707 445.305 195.885 446.18 195.288C447.055 194.669 448.036 194.36 449.124 194.36C450.873 194.36 452.271 195 453.316 196.28C454.383 197.539 454.916 199.181 454.916 201.208V207.48C454.916 209.848 454.287 211.704 453.028 213.048C451.791 214.392 449.785 215.064 447.012 215.064H443.844V212.824H447.012ZM445.412 201.208C445.412 202.467 445.721 203.373 446.34 203.928C446.959 204.461 447.897 204.728 449.156 204.728H452.932V201.208C452.932 199.757 452.601 198.627 451.94 197.816C451.3 197.005 450.361 196.6 449.124 196.6C447.972 196.6 447.065 197.016 446.404 197.848C445.743 198.68 445.412 199.8 445.412 201.208ZM467.396 186.232H469.38L469.412 207H467.428L467.396 186.232ZM478.661 197.304V206.488C478.661 209.283 477.957 211.405 476.549 212.856C475.141 214.328 473.114 215.064 470.469 215.064H468.453V212.824H470.469C472.645 212.824 474.224 212.323 475.205 211.32C476.186 210.339 476.677 208.728 476.677 206.488V197.304H478.661Z" fill="#6950A1"/>
</g>
</g>
<defs>
<filter id="filter0_dd_779_382" x="0" y="0" width="791" height="281" filterUnits="userSpaceOnUse" color-interpolation-filters="sRGB">
<feFlood flood-opacity="0" result="BackgroundImageFix"/>
<feColorMatrix in="SourceAlpha" type="matrix" values="0 0 0 0 0 0 0 0 0 0 0 0 0 0 0 0 0 0 127 0" result="hardAlpha"/>
<feOffset dx="-4" dy="8"/>
<feGaussianBlur stdDeviation="4"/>
<feComposite in2="hardAlpha" operator="out"/>
<feColorMatrix type="matrix" values="0 0 0 0 0 0 0 0 0 0 0 0 0 0 0 0 0 0 0.1 0"/>
<feBlend mode="normal" in2="BackgroundImageFix" result="effect1_dropShadow_779_382"/>
<feColorMatrix in="SourceAlpha" type="matrix" values="0 0 0 0 0 0 0 0 0 0 0 0 0 0 0 0 0 0 127 0" result="hardAlpha"/>
<feOffset dx="2" dy="1"/>
<feGaussianBlur stdDeviation="3"/>
<feComposite in2="hardAlpha" operator="out"/>
<feColorMatrix type="matrix" values="0 0 0 0 0 0 0 0 0 0 0 0 0 0 0 0 0 0 0.15 0"/>
<feBlend mode="normal" in2="effect1_dropShadow_779_382" result="effect2_dropShadow_779_382"/>
<feBlend mode="normal" in="SourceGraphic" in2="effect2_dropShadow_779_382" result="shape"/>
</filter>
<filter id="filter1_d_779_382" x="1.64648" y="55.352" width="765.721" height="185.712" filterUnits="userSpaceOnUse" color-interpolation-filters="sRGB">
<feFlood flood-opacity="0" result="BackgroundImageFix"/>
<feColorMatrix in="SourceAlpha" type="matrix" values="0 0 0 0 0 0 0 0 0 0 0 0 0 0 0 0 0 0 127 0" result="hardAlpha"/>
<feOffset dx="-16" dy="16"/>
<feGaussianBlur stdDeviation="5"/>
<feComposite in2="hardAlpha" operator="out"/>
<feColorMatrix type="matrix" values="0 0 0 0 0 0 0 0 0 0 0 0 0 0 0 0 0 0 0.25 0"/>
<feBlend mode="normal" in2="BackgroundImageFix" result="effect1_dropShadow_779_382"/>
<feBlend mode="normal" in="SourceGraphic" in2="effect1_dropShadow_779_382" result="shape"/>
</filter>
</defs>
</svg>
